<?xml version="1.0" standalone="no"?>
<!DOCTYPE svg PUBLIC "-//W3C//DTD SVG 20010904//EN"
 "http://www.w3.org/TR/2001/REC-SVG-20010904/DTD/svg10.dtd">
<svg version="1.0" xmlns="http://www.w3.org/2000/svg"
width="292" height="166" viewBox="2 5 500 800"
 preserveAspectRatio="xMidYMid meet">

<g transform="translate(0.000000,800) scale(0.1,-0.1   )"
fill="#000000" stroke="none">
<path d="M1853 7563 c-21 -4 -23 -10 -23 -66 0 -34 3 -86 6 -114 l7 -53 36 0
c59 0 60 3 54 128 l-6 112 -26 -1 c-14 -1 -36 -4 -48 -6z"/>
<path d="M3708 7377 c-2 -61 -3 -113 -2 -115 1 -2 16 9 33 24 35 29 61 73 61
103 0 21 -42 76 -70 91 -17 9 -18 2 -22 -103z"/>
<path d="M2263 7339 c-81 -5 -143 -13 -160 -22 -82 -43 -203 -191 -203 -248
l0 -29 68 0 c37 0 139 5 226 10 147 9 162 11 199 36 86 56 187 187 187 242 0
21 -3 22 -92 21 -51 -1 -152 -6 -225 -10z"/>
<path d="M3782 7130 c-50 -45 -204 -126 -310 -164 -40 -14 -77 -26 -83 -26 -5
0 -9 27 -9 60 0 33 -2 60 -5 60 -3 0 -74 -20 -158 -44 -83 -24 -170 -49 -192
-55 l-41 -11 4 -63 c4 -61 3 -65 -19 -69 -594 -129 -1028 -178 -1569 -178
-397 0 -646 27 -845 91 -94 30 -99 30 -112 13 -7 -10 -13 -21 -13 -26 0 -11
-68 -115 -80 -123 -17 -11 -49 5 -56 27 -5 18 -13 8 -47 -58 -22 -43 -57 -119
-77 -169 -21 -49 -55 -128 -75 -175 -20 -47 -43 -102 -51 -124 -16 -45 -19
-192 -4 -263 5 -26 14 -84 20 -128 16 -138 49 -376 65 -465 8 -47 21 -137 30
-200 9 -63 18 -131 21 -150 3 -19 11 -78 19 -130 7 -52 27 -187 44 -300 17
-113 36 -239 41 -280 5 -41 16 -118 25 -170 8 -52 20 -129 25 -170 6 -41 15
-104 20 -140 5 -36 16 -114 25 -175 8 -60 22 -150 30 -200 12 -77 22 -147 51
-355 2 -19 11 -84 20 -145 8 -60 19 -139 24 -175 5 -36 14 -81 20 -100 5 -19
10 -52 10 -74 0 -58 19 -112 57 -156 18 -21 44 -63 58 -92 27 -61 79 -250 95
-353 16 -98 86 -629 116 -880 30 -250 14 -226 219 -328 199 -100 380 -162 609
-211 327 -70 775 -88 1136 -46 52 6 136 16 185 21 155 17 295 40 433 70 203
45 200 44 248 121 168 273 286 856 346 1703 18 246 18 1254 0 1470 -59 728
-198 1429 -388 1959 -59 164 -102 259 -171 378 -207 357 -284 510 -322 633
-12 37 -21 73 -21 79 0 12 197 75 202 65 2 -2 27 -51 55 -109 29 -58 109 -213
178 -345 68 -132 136 -276 150 -320 15 -49 56 -273 105 -585 114 -712 172
-1068 235 -1430 247 -1424 300 -2590 149 -3309 l-7 -34 44 26 c192 114 373
300 455 469 35 73 35 73 29 173 -3 55 -15 199 -26 320 -11 121 -24 276 -29
345 -22 295 -41 526 -55 685 -8 94 -22 247 -30 340 -8 94 -20 217 -25 275 -6
58 -15 168 -20 245 -14 192 -65 814 -90 1095 -6 63 -15 176 -21 250 -6 74 -14
178 -19 230 -17 189 -54 626 -70 815 -23 297 -32 393 -40 441 -10 61 -45 140
-65 148 -9 3 -12 0 -9 -8 9 -23 -15 -29 -42 -11 -24 15 -24 15 -12 -4 22 -36
-29 -69 -61 -38 -10 10 -11 9 -5 -6 7 -20 -11 -47 -33 -47 -22 0 -66 52 -52
61 7 4 20 -2 30 -14 9 -12 21 -19 25 -15 10 10 -44 78 -62 78 -8 0 -14 10 -14
23 0 13 -9 32 -20 42 -23 20 -39 13 -21 -9 18 -22 -4 -28 -24 -7 -20 24 -16
54 8 59 24 5 65 -23 79 -54 13 -28 81 -104 72 -80 -8 21 5 20 28 -1 10 -9 21
-14 24 -10 10 9 -28 58 -54 68 -14 6 -22 15 -19 23 3 8 -1 23 -9 35 -20 28
-38 28 -24 0 10 -18 9 -20 -6 -17 -25 4 -46 48 -32 65 17 21 34 15 65 -22 15
-19 41 -50 56 -68 l28 -32 -26 39 c-40 62 -31 100 13 53 25 -26 30 -46 7 -27
-26 21 -16 -4 16 -43 17 -21 34 -36 37 -33 2 3 -1 12 -8 21 -15 18 0 20 20 3
7 -7 -17 26 -53 73 -37 47 -64 89 -60 92 14 14 -155 238 -232 308 l-40 37 -43
-38z m-816 -499 c-12 -18 -140 -62 -189 -64 -73 -3 -70 17 5 42 81 26 195 40
184 22z m-992 -162 c20 -18 -56 -32 -194 -36 -145 -4 -188 3 -164 27 24 24
334 31 358 9z m-1232 -79 c10 -14 23 -50 30 -81 10 -49 9 -63 -6 -103 -20 -52
-94 -139 -138 -162 -70 -36 -114 20 -105 134 4 55 11 73 53 135 27 40 55 80
63 90 22 26 79 19 103 -13z m1557 -366 c30 -8 89 -31 133 -50 74 -33 84 -35
145 -28 l65 7 -48 30 c-62 37 -60 35 -46 49 15 15 81 -4 146 -44 l49 -30 186
21 c203 23 217 26 276 40 39 10 75 7 75 -7 -1 -21 -33 -36 -210 -95 -107 -36
-195 -70 -194 -74 0 -4 6 -21 13 -37 6 -17 11 -48 9 -70 -3 -35 -8 -43 -41
-62 l-38 -21 39 -26 c45 -29 72 -79 72 -132 0 -30 -8 -45 -39 -76 -35 -35 -44
-39 -90 -39 -131 0 -344 119 -487 273 -38 40 -82 79 -99 85 -16 6 -67 16 -113
21 -93 12 -125 25 -120 49 4 23 60 49 162 74 l85 21 -6 68 c-7 79 -8 78 76 53z
m-634 -49 c59 -34 185 -146 225 -200 19 -26 55 -59 80 -73 157 -91 321 -216
496 -379 124 -115 155 -131 274 -139 56 -4 80 -2 93 8 18 14 18 15 -7 45 -15
18 -56 53 -91 78 -36 25 -65 53 -65 61 0 20 6 18 69 -17 79 -45 197 -135 226
-174 26 -34 32 -82 15 -116 -27 -50 -135 -63 -287 -34 -43 8 -79 15 -80 15 0
0 7 -23 18 -50 10 -28 19 -60 19 -73 0 -18 14 -28 68 -52 215 -96 344 -232
329 -346 -9 -67 -42 -92 -127 -97 -111 -7 -214 29 -357 124 -134 89 -196 176
-197 276 -1 46 3 62 21 79 26 26 98 35 163 20 24 -5 46 -8 49 -5 2 2 -1 29 -8
60 -10 43 -10 58 -1 64 7 4 -8 12 -37 19 -139 35 -404 156 -571 259 -149 93
-266 192 -319 274 -25 38 -26 38 -93 38 -58 0 -72 4 -106 29 -38 27 -47 28
-179 35 -77 4 -176 9 -220 12 -73 5 -82 3 -104 -17 l-24 -23 6 25 c6 24 3 26
-68 47 -87 26 -126 55 -102 79 27 27 91 33 432 43 187 6 369 11 404 13 l64 2
-51 56 c-69 75 -52 89 43 34z m1451 -300 c4 -8 14 -15 23 -15 14 0 14 -2 1
-10 -20 -13 -87 -13 -95 0 -4 6 -4 17 -1 25 7 20 65 20 72 0z m7 -59 c7 -18
-12 -36 -39 -36 -26 0 -38 14 -30 35 7 19 62 20 69 1z m-1796 -72 l28 -25 -32
6 c-46 9 -97 -10 -133 -51 -33 -38 -38 -32 -16 20 30 73 102 97 153 50z m1801
4 c-2 -18 -11 -24 -35 -26 -25 -2 -33 1 -33 12 0 9 -8 16 -17 17 -32 1 18 18
55 18 29 1 33 -2 30 -21z m15 -82 c7 -18 -12 -36 -39 -36 -26 0 -38 14 -30 35
7 19 62 20 69 1z m5 -68 c-2 -18 -10 -23 -38 -25 l-35 -2 35 12 35 11 -32 4
c-44 5 -42 22 3 22 31 0 35 -3 32 -22z m-1242 -64 c35 -20 64 -42 64 -49 0 -8
-30 -87 -66 -177 -104 -258 -126 -389 -63 -379 76 11 177 4 229 -17 141 -56
235 -176 216 -276 -24 -126 -271 -58 -433 118 l-56 61 7 -50 c9 -67 57 -144
138 -220 221 -205 645 -394 858 -382 85 4 148 30 169 70 25 46 10 129 -34 192
-93 135 -365 245 -435 175 -28 -28 -25 -44 16 -84 36 -35 71 -50 146 -62 30
-5 46 -17 77 -58 22 -28 52 -62 66 -76 14 -13 25 -28 25 -33 0 -5 -40 -8 -97
-5 -79 3 -109 9 -154 30 -111 51 -171 131 -173 232 -2 97 50 131 188 123 110
-6 179 -30 281 -98 131 -88 205 -192 226 -318 37 -231 -99 -341 -372 -302
-398 58 -884 419 -979 729 -24 76 -25 103 -6 165 13 44 12 50 -11 108 -61 151
-52 255 41 465 31 69 56 132 56 140 0 20 3 19 76 -22z m1274 26 c0 -5 -4 -10
-10 -10 -5 0 -10 -7 -10 -15 0 -9 -11 -20 -25 -25 -14 -5 -25 -12 -25 -15 0
-3 11 -3 25 1 15 4 25 2 25 -5 0 -6 -16 -11 -35 -11 -32 0 -35 2 -35 30 0 17
0 33 0 38 -1 4 16 10 37 13 21 3 41 7 46 8 4 0 7 -3 7 -9z m946 -5 c18 -13 16
-14 -22 -15 -26 0 -51 -8 -68 -21 -21 -16 -26 -17 -26 -5 0 20 48 56 74 56 12
0 31 -7 42 -15z m-3034 -123 c36 -79 100 -330 122 -474 15 -105 37 -321 81
-803 27 -295 82 -873 90 -945 3 -25 12 -119 20 -210 26 -287 49 -515 80 -773
57 -486 60 -958 6 -957 -26 1 -48 42 -80 151 -45 155 -57 215 -106 513 -74
457 -118 820 -185 1551 -44 482 -59 599 -130 1045 -45 275 -49 306 -60 419
-19 199 -11 396 21 498 13 41 65 76 92 61 11 -5 33 -40 49 -76z m2078 14 c0
-21 -5 -24 -35 -24 -27 0 -35 4 -35 17 0 24 9 31 42 31 23 0 28 -4 28 -24z
m-6 -51 c-17 -13 -17 -14 -1 -15 9 0 17 -4 17 -9 0 -5 -8 -12 -17 -14 -13 -3
-10 -5 7 -6 36 -2 12 -18 -37 -24 -50 -6 -60 13 -15 30 l27 11 -32 7 c-57 13
-36 30 41 34 28 1 29 0 10 -14z m-919 -169 c18 -13 16 -14 -19 -14 -25 0 -45
-7 -62 -23 -31 -29 -33 -5 -2 28 24 26 55 30 83 9z m885 -21 c37 -19 40 -40 5
-31 -38 10 -101 -11 -140 -45 -38 -33 -41 -30 -24 20 21 61 98 88 159 56z
m694 -586 c36 -28 33 -35 -14 -31 -51 5 -93 -12 -125 -50 -23 -27 -25 -28 -25
-8 0 29 26 76 52 94 31 22 80 20 112 -5z m-514 -339 c12 -8 9 -10 -13 -10 -40
0 -80 -24 -116 -67 -32 -38 -39 -34 -21 12 16 43 59 75 99 75 20 0 43 -5 51
-10z m-939 -341 c29 -11 39 -41 39 -109 l0 -38 -92 34 c-50 19 -93 35 -94 37
-1 1 -5 32 -9 69 l-7 68 68 -25 c38 -14 81 -30 95 -36z m949 -54 c0 -3 -11
-27 -24 -53 -63 -125 -88 -294 -54 -372 17 -37 46 -73 75 -89 15 -8 12 -15
-29 -59 -25 -27 -59 -74 -75 -103 -26 -51 -28 -61 -27 -174 1 -213 39 -345
197 -680 129 -274 165 -405 154 -559 -7 -98 -46 -225 -88 -289 -44 -67 -99
-110 -195 -153 l-84 -38 7 -36 c5 -19 8 -87 8 -150 0 -106 -2 -119 -28 -173
-42 -84 -88 -112 -182 -112 -63 0 -76 3 -108 28 -49 37 -69 78 -75 152 -3 48
0 72 15 106 27 58 89 127 168 185 36 27 65 51 65 56 0 12 -78 66 -145 101 -33
16 -103 45 -155 62 l-95 32 -7 -71 c-8 -86 -27 -142 -68 -201 -60 -88 -137
-125 -256 -125 -171 0 -304 102 -410 315 -69 139 -109 344 -75 378 15 15 31
-7 31 -44 0 -50 40 -181 75 -248 100 -191 278 -304 452 -288 131 13 201 87
211 226 l5 69 -59 17 c-97 28 -273 103 -375 161 -184 103 -300 204 -358 313
-61 114 -50 205 29 257 36 24 53 28 109 28 81 0 142 -21 231 -80 114 -75 270
-246 352 -386 24 -41 33 -48 95 -68 182 -59 388 -214 466 -351 12 -21 26 -39
31 -39 16 0 111 78 165 135 129 137 161 329 95 581 -14 55 -62 189 -106 299
-199 492 -227 579 -247 757 -27 243 49 454 232 646 37 38 57 51 57 37z m603
-83 c16 -17 15 -18 -18 -14 -28 3 -40 -2 -65 -26 -29 -29 -30 -29 -30 -8 0 54
78 87 113 48z m-1579 -74 c32 -10 94 -37 137 -58 87 -44 242 -110 258 -110 20
0 11 29 -16 59 -16 17 -59 48 -98 69 -86 49 -96 67 -31 60 63 -8 145 -58 237
-148 58 -56 79 -84 84 -110 9 -50 -8 -86 -52 -109 -21 -11 -32 -20 -26 -21 7
0 31 -16 53 -36 43 -39 65 -95 54 -139 -9 -35 -66 -83 -110 -91 -130 -24 -478
186 -554 336 -22 43 -23 73 -4 153 5 20 3 27 -9 27 -19 0 -26 19 -34 92 l-6
59 29 -7 c16 -3 55 -15 88 -26z m1287 -358 c20 -11 54 -68 46 -77 -3 -2 -14 0
-25 6 -45 24 -110 4 -147 -45 -14 -18 -14 -18 -15 3 0 31 18 74 42 101 23 24
66 29 99 12z m-1691 -125 c237 -71 478 -158 634 -229 206 -93 213 -96 236 -96
48 0 -6 60 -105 119 -44 26 -80 51 -80 56 0 23 53 14 120 -19 77 -38 205 -147
230 -197 17 -32 19 -82 5 -108 -5 -10 -23 -24 -40 -31 l-31 -13 42 -35 c92
-79 91 -180 -4 -228 -44 -23 -127 -13 -211 25 -38 17 -69 31 -70 31 -1 0 5
-29 14 -65 15 -64 15 -65 66 -86 77 -31 223 -129 272 -183 71 -77 88 -143 57
-211 -41 -84 -193 -82 -368 5 -227 114 -352 285 -292 400 22 42 74 56 156 41
34 -6 65 -9 67 -6 2 2 -1 27 -8 54 -6 28 -10 56 -8 63 3 7 -29 36 -73 66 -98
67 -194 168 -210 221 -9 32 -9 50 1 86 7 25 11 48 8 50 -3 3 -54 19 -114 35
-60 17 -182 54 -270 82 l-162 51 -6 36 c-9 56 -7 96 6 109 15 15 3 17 138 -23z
m1377 -1381 l28 -25 -27 5 c-34 8 -75 -8 -110 -42 -31 -29 -36 -17 -12 33 27
57 77 69 121 29z"/>
<path d="M2461 5738 l-65 -10 25 -19 c129 -101 348 -164 357 -102 4 24 -43 60
-145 112 -67 33 -73 34 -172 19z"/>
<path d="M1738 5701 l-26 -39 46 -45 c108 -104 479 -301 684 -362 l53 -15 -55
56 c-30 30 -93 86 -140 124 -93 74 -321 232 -327 226 -2 -2 1 -16 7 -31 19
-50 28 -105 19 -111 -5 -3 -40 13 -78 37 -63 39 -69 45 -84 96 -19 61 -44 103
-61 103 -6 -1 -23 -18 -38 -39z"/>
<path d="M2430 4871 c-21 -40 40 -121 90 -121 36 0 80 50 80 91 0 36 -27 49
-105 49 -43 0 -56 -4 -65 -19z"/>
<path d="M2645 4837 c-2 -6 -6 -24 -9 -39 -3 -14 -17 -40 -31 -56 -29 -35 -26
-38 56 -71 124 -49 225 -64 235 -36 16 42 -54 123 -146 170 -80 40 -100 47
-105 32z"/>
<path d="M3065 5669 c-4 -6 -4 -13 -1 -16 8 -8 36 5 36 17 0 13 -27 13 -35 -1z"/>
<path d="M3090 5610 c0 -5 5 -10 10 -10 6 0 10 5 10 10 0 6 -4 10 -10 10 -5 0
-10 -4 -10 -10z"/>
<path d="M3070 5540 c0 -5 9 -10 19 -10 11 0 23 5 26 10 4 6 -5 10 -19 10 -14
0 -26 -4 -26 -10z"/>
<path d="M3110 5460 c0 -5 5 -10 10 -10 6 0 10 5 10 10 0 6 -4 10 -10 10 -5 0
-10 -4 -10 -10z"/>
<path d="M1861 4662 c-11 -8 -10 -15 8 -40 56 -80 159 -148 270 -178 75 -21
96 -10 87 44 -8 53 -48 95 -128 137 -62 33 -84 39 -148 42 -41 2 -81 0 -89 -5z"/>
<path d="M3100 5330 c0 -5 9 -10 20 -10 11 0 20 5 20 10 0 6 -9 10 -20 10 -11
0 -20 -4 -20 -10z"/>
<path d="M3110 5240 c0 -5 5 -10 10 -10 6 0 10 5 10 10 0 6 -4 10 -10 10 -5 0
-10 -4 -10 -10z"/>
<path d="M1850 2067 c-80 -41 -22 -178 107 -252 62 -35 160 -72 264 -100 111
-29 259 -58 266 -51 11 10 -87 134 -166 209 -93 89 -199 161 -277 188 -61 22
-157 25 -194 6z"/>
<path d="M3059 1065 c-68 -45 -128 -137 -129 -198 0 -61 44 -113 105 -122 32
-5 46 -2 67 15 54 42 75 189 40 280 -10 25 -24 46 -32 47 -8 1 -31 -9 -51 -22z"/>
<path d="M2320 3351 c0 -36 16 -56 82 -106 126 -95 313 -168 373 -145 46 18
26 45 -81 108 -82 49 -302 150 -344 159 -26 5 -30 3 -30 -16z"/>
<path d="M2393 2714 c-14 -38 67 -114 201 -188 131 -73 267 -98 274 -49 4 28
-44 61 -208 143 -106 53 -238 110 -256 110 -2 0 -7 -7 -11 -16z"/>
<path d="M2476 2164 c-21 -20 -20 -32 4 -71 26 -44 71 -66 103 -52 29 13 57
58 57 93 0 21 -7 27 -37 35 -55 16 -109 13 -127 -5z"/>
<path d="M2687 2123 c-3 -5 -8 -22 -11 -39 -4 -17 -18 -42 -32 -54 -13 -13
-24 -27 -24 -31 0 -11 136 -65 217 -85 66 -17 74 -17 89 -3 39 39 -29 125
-145 184 -73 36 -87 40 -94 28z"/>
<path d="M372 7106 c-47 -61 -37 -117 29 -160 21 -14 41 -26 43 -26 2 0 -4 18
-15 40 -10 21 -20 56 -20 77 -1 21 -4 51 -8 68 l-6 29 -23 -28z"/>
<path d="M4090 664 c-195 -92 -503 -189 -765 -240 -99 -19 -191 -38 -203 -40
-22 -4 -24 -9 -20 -58 l3 -53 -90 -17 c-409 -75 -887 -71 -1227 10 -118 28
-110 20 -120 113 -3 21 -15 27 -123 56 -66 19 -164 49 -217 68 -54 18 -98 31
-98 28 0 -18 142 -147 199 -181 232 -136 587 -193 1066 -169 386 20 768 91
1105 207 174 60 492 229 541 288 15 19 13 18 -51 -12z"/>
</g>
</svg>
