<?xml version="1.0" standalone="no"?>
<!DOCTYPE svg PUBLIC "-//W3C//DTD SVG 20010904//EN"
 "http://www.w3.org/TR/2001/REC-SVG-20010904/DTD/svg10.dtd">
<svg version="1.0" xmlns="http://www.w3.org/2000/svg"
 width="296" height="166" viewBox="0 0 1000.000000 1000.000000"
 preserveAspectRatio="xMidYMid meet">

<g transform="translate(0.000000,1000.000000) scale(0.100000,-0.100000)"
fill="rgb(0,0,139)" stroke="none">
<path d="M4460 9405 c-189 -28 -319 -82 -390 -162 -38 -44 -70 -116 -70 -159
0 -15 -8 -25 -22 -29 -46 -14 -88 -38 -88 -49 0 -15 31 -32 88 -46 28 -7 42
-16 43 -28 10 -318 28 -701 34 -715 5 -13 14 -17 29 -12 36 10 253 34 414 45
225 15 551 12 750 -6 133 -13 176 -14 185 -5 9 9 11 102 9 352 l-3 340 56 24
c56 25 81 58 69 90 -3 8 -31 22 -62 31 -86 25 -102 32 -102 48 0 9 -10 41 -21
72 -41 110 -144 182 -297 210 -98 17 -503 17 -622 -1z m608 -96 c17 -6 32 -15
32 -20 0 -12 -4 -12 -85 8 -82 20 -79 19 -71 31 6 10 58 2 124 -19z m-420 0
c-5 -14 -104 -41 -133 -37 -13 2 1 11 40 25 68 24 98 28 93 12z m516 -40 c14
-7 23 -15 20 -20 -5 -9 -61 8 -70 22 -7 13 20 11 50 -2z"/>
<path d="M5811 6754 c-19 -8 -31 -17 -28 -20 3 -3 15 -1 26 6 13 7 21 7 21 1
0 -6 8 -8 18 -4 16 5 16 5 1 -8 -11 -10 -18 -37 -22 -86 -5 -62 -48 -270 -64
-313 -6 -16 -9 -26 -11 -47 -1 -7 -9 -10 -17 -7 -13 5 -13 3 -1 -21 13 -24 13
-30 0 -42 -13 -14 -18 -28 -15 -46 1 -5 -3 -6 -9 -2 -5 3 -10 1 -10 -5 0 -6
-4 -8 -10 -5 -5 3 -10 1 -10 -5 0 -6 -5 -8 -11 -5 -6 4 1 -15 15 -43 25 -49
27 -86 11 -159 -6 -28 -181 -183 -206 -183 -11 0 -19 -7 -19 -15 0 -21 -15
-19 -31 5 -8 11 -29 23 -47 26 -32 7 -33 6 -30 -22 3 -25 8 -29 45 -36 45 -7
83 -24 96 -42 6 -7 7 -4 3 7 -5 15 -1 18 27 15 18 -2 31 -8 30 -15 -2 -7 3
-10 11 -7 18 7 29 -12 22 -39 -3 -12 -26 -52 -50 -89 -25 -38 -40 -68 -33 -68
6 0 47 12 91 25 67 22 84 24 113 14 41 -13 57 -36 77 -114 14 -56 14 -61 -5
-91 -25 -41 -140 -149 -180 -170 -17 -8 -95 -30 -172 -48 -78 -19 -133 -35
-122 -38 20 -4 20 -4 -1 -15 -14 -8 -33 -9 -65 -2 -32 8 -87 6 -204 -6 -88 -9
-250 -18 -359 -21 -110 -2 -202 -7 -205 -10 -3 -4 -1 -4 6 0 15 8 65 -3 58
-14 -5 -8 12 -12 110 -30 100 -17 365 -8 320 12 -14 5 -8 6 16 3 36 -5 79 7
109 31 17 13 110 35 122 28 11 -7 -3 -34 -18 -34 -8 0 -14 -6 -14 -14 0 -9
-14 -15 -39 -18 -23 -2 -37 1 -34 6 4 5 -4 6 -18 3 -13 -4 -30 -7 -37 -7 -7 0
-11 -4 -7 -9 3 -5 -5 -13 -17 -17 -13 -4 -36 -17 -53 -29 -62 -45 -251 -125
-296 -125 -22 0 -121 -31 -134 -42 -12 -11 43 -10 125 2 73 10 306 37 390 45
41 4 51 2 40 -6 -12 -8 -10 -9 10 -4 14 4 39 9 55 11 l30 4 -29 -14 c-23 -11
-25 -14 -11 -19 26 -11 42 -8 25 4 -11 8 -7 9 17 5 38 -6 189 44 176 59 -4 4
-3 5 4 1 16 -9 133 51 208 106 166 124 268 277 295 443 6 39 15 93 20 120 5
28 12 100 15 160 13 259 67 655 116 860 23 97 24 137 4 175 -32 62 -153 90
-234 54z m134 -12 c-3 -3 -11 0 -18 7 -9 10 -8 11 6 5 10 -3 15 -9 12 -12z
m-76 -659 c37 -46 0 -103 -68 -103 -48 0 -72 18 -77 58 -8 66 102 101 145 45z"/>
<path d="M5748 6055 c-11 -24 -10 -29 11 -46 45 -37 111 -16 111 35 0 32 -6
35 -48 25 -23 -5 -41 -4 -49 3 -9 7 -16 3 -25 -17z m59 -31 c-3 -3 -12 -4 -19
-1 -8 3 -5 6 6 6 11 1 17 -2 13 -5z"/>
<path d="M5563 6587 c-23 -17 -45 -41 -49 -52 -4 -11 -9 -22 -13 -25 -15 -12
-71 -90 -71 -99 0 -5 -6 -12 -12 -14 -7 -3 -8 -6 -3 -6 6 -1 39 36 75 81 36
45 79 97 97 115 39 42 30 42 -24 0z"/>
<path d="M5640 6240 c0 -32 18 -60 39 -60 23 0 45 46 31 68 -6 11 -10 12 -10
4 0 -8 -5 -10 -12 -6 -8 5 -9 2 -5 -9 4 -10 1 -17 -6 -17 -8 0 -7 -4 3 -11 13
-9 13 -10 0 -6 -8 2 -15 11 -14 18 1 8 -5 20 -12 27 -12 11 -14 9 -14 -8z"/>
<path d="M5320 6218 c-92 -62 -92 -206 0 -311 47 -53 91 -71 172 -69 177 3
256 177 141 312 -52 60 -103 83 -198 88 -72 3 -84 1 -115 -20z m237 -24 c25
-16 49 -36 51 -44 3 -8 1 -12 -3 -8 -5 4 -14 3 -21 -3 -7 -6 -32 -12 -56 -13
-23 -1 -44 -8 -46 -14 -2 -7 -10 -12 -18 -12 -9 0 -12 -4 -9 -10 3 -5 1 -10
-4 -10 -6 0 -11 -4 -11 -10 0 -5 13 -1 30 8 39 22 55 8 39 -35 -12 -35 -47
-63 -78 -63 -14 0 -23 -9 -27 -25 -8 -33 -24 -22 -24 16 0 37 29 95 66 132 15
15 25 29 22 32 -9 9 -71 -60 -85 -94 -8 -19 -15 -55 -15 -80 0 -42 -1 -44 -14
-27 -8 11 -14 42 -14 70 0 43 -5 55 -32 83 -18 18 -27 33 -22 33 6 0 19 7 30
16 18 15 18 15 -3 5 -29 -15 -33 -14 -33 7 0 19 28 49 65 71 12 7 48 10 92 8
59 -3 82 -10 120 -33z m70 -90 c-3 -3 -12 -4 -19 -1 -8 3 -5 6 6 6 11 1 17 -2
13 -5z m1 -26 c-2 -7 -21 -21 -41 -31 -61 -30 -47 -46 18 -22 18 7 19 6 5 -8
-8 -9 -33 -23 -55 -31 -39 -14 -39 -15 -10 -16 27 -1 28 -2 13 -14 -10 -7 -14
-17 -10 -21 4 -4 -3 -5 -16 -2 -12 3 -20 1 -17 -4 5 -7 -6 -12 -68 -24 -10 -2
-14 1 -10 8 4 6 0 8 -10 4 -10 -3 -17 -2 -17 3 0 6 4 10 10 10 5 0 6 7 3 17
-4 10 -2 14 4 10 16 -10 82 41 89 68 3 14 18 34 31 45 29 22 87 28 81 8z"/>
<path d="M5350 6100 c23 -32 36 -40 27 -16 -3 8 1 17 10 20 9 4 13 9 10 13 -4
3 -13 0 -22 -7 -12 -10 -16 -9 -21 4 -3 9 -10 16 -16 16 -5 0 0 -13 12 -30z"/>
<path d="M5440 6040 c-11 -11 -20 -24 -20 -30 0 -5 9 -10 20 -10 11 0 21 5 21
10 3 20 4 25 12 38 13 19 -11 14 -33 -8z"/>
<path d="M5565 6060 c-3 -5 -2 -10 4 -10 5 0 13 5 16 10 3 6 2 10 -4 10 -5 0
-13 -4 -16 -10z"/>
<path d="M5480 5960 c8 -5 24 -10 34 -10 26 0 18 6 -19 14 -22 5 -26 4 -15 -4z"/>
<path d="M5445 5940 c-3 -6 1 -7 9 -4 18 7 21 14 7 14 -6 0 -13 -4 -16 -10z"/>
<path d="M5065 5970 c-3 -5 -2 -10 4 -10 5 0 13 5 16 10 3 6 2 10 -4 10 -5 0
-13 -4 -16 -10z"/>
<path d="M5000 5955 c0 -16 16 -20 24 -6 3 5 -1 11 -9 15 -9 3 -15 0 -15 -9z"/>
<path d="M4987 5903 c-12 -6 -25 -9 -29 -7 -13 8 -18 -15 -8 -41 8 -22 7 -25
-8 -23 -13 2 -17 -3 -15 -25 2 -25 -1 -27 -20 -21 -12 4 -33 14 -47 23 l-24
16 44 5 c36 4 44 8 42 23 -3 20 -42 63 -42 47 0 -6 -18 -30 -40 -52 -22 -23
-40 -46 -40 -50 0 -4 -5 -8 -12 -8 -6 0 -3 9 7 20 10 11 14 20 8 20 -14 0 -47
-39 -40 -47 4 -3 2 -12 -4 -20 -9 -9 -8 -13 0 -13 7 0 3 -10 -9 -22 -11 -12
-20 -30 -20 -39 0 -24 -35 -47 -66 -43 -21 2 -25 -1 -21 -17 3 -10 1 -22 -4
-25 -5 -3 -6 -10 -3 -16 4 -6 -1 -8 -15 -3 -16 5 -25 -1 -41 -27 -26 -43 -25
-50 6 -38 14 6 38 10 54 10 23 0 31 5 36 25 7 28 18 32 34 13 41 -49 61 -68
70 -68 11 0 9 -28 -6 -80 -2 -8 5 -28 16 -45 11 -16 20 -25 20 -20 0 6 4 3 10
-5 8 -12 24 -12 127 4 148 22 293 55 293 67 0 12 -17 11 -25 -1 -3 -5 -14 -3
-24 7 -16 13 -17 21 -9 45 9 24 15 29 35 25 31 -6 39 9 13 23 -11 6 -20 7 -20
3 0 -4 -5 -2 -12 5 -7 7 -21 12 -33 12 -26 0 -45 18 -39 35 3 7 -5 20 -17 28
-14 10 -19 22 -15 32 4 12 0 18 -14 22 -11 3 -20 9 -20 14 0 5 -7 9 -15 9 -8
0 -15 3 -15 8 0 4 -10 12 -22 17 -14 6 -22 17 -20 28 3 17 -2 18 -62 12 -86
-9 -86 7 -1 22 71 12 95 26 95 52 0 17 33 51 50 51 6 0 10 -8 10 -18 0 -25 36
-97 43 -86 3 5 8 26 12 48 7 34 5 41 -20 62 -16 13 -23 24 -17 24 7 0 12 3 12
8 0 12 -99 8 -123 -5z m33 -13 c-20 -13 -43 -13 -35 0 3 6 16 10 28 10 18 0
19 -2 7 -10z m93 -55 c-7 -21 -13 -19 -13 6 0 11 4 18 10 14 5 -3 7 -12 3 -20z
m-233 -145 c0 -5 -9 -10 -20 -10 -11 0 -20 5 -20 10 0 6 9 10 20 10 11 0 20
-4 20 -10z m42 -23 c9 -9 13 -35 12 -72 l-1 -58 59 7 c47 5 66 2 89 -11 38
-22 42 -36 18 -62 -29 -31 -39 -26 -39 18 0 44 -15 63 -25 31 -4 -11 -21 -23
-43 -30 -53 -14 -59 -13 -66 15 -6 22 -9 24 -26 15 -16 -9 -20 -8 -20 5 0 8
-7 15 -15 15 -8 0 -15 -4 -15 -9 0 -5 -18 -8 -39 -7 -38 1 -39 2 -34 28 3 18
1 28 -6 28 -6 0 -15 8 -18 18 -4 9 -13 23 -20 30 -7 8 -11 18 -8 23 10 15 23
10 30 -11 3 -11 15 -25 26 -31 16 -8 26 -3 61 31 44 43 59 48 80 27z m154 -95
c7 -4 -12 -8 -42 -9 -32 -1 -52 2 -49 8 7 11 75 12 91 1z m79 -82 c3 -5 -1
-10 -9 -10 -9 0 -16 5 -16 10 0 6 4 10 9 10 6 0 13 -4 16 -10z m-115 -19 c0
-5 -18 -11 -40 -13 -40 -4 -55 7 -22 15 31 8 62 7 62 -2z"/>
<path d="M4850 5630 c0 -5 5 -10 10 -10 6 0 10 5 10 10 0 6 -4 10 -10 10 -5 0
-10 -4 -10 -10z"/>
<path d="M4896 5614 c-4 -10 -1 -14 6 -12 15 5 23 28 10 28 -5 0 -13 -7 -16
-16z"/>
<path d="M5030 5825 c0 -8 4 -15 8 -15 5 0 9 7 9 15 0 8 -4 15 -9 15 -4 0 -8
-7 -8 -15z"/>
<path d="M5314 5808 c0 -22 -4 -32 -17 -34 -9 -1 -17 4 -17 11 0 18 -29 47
-40 40 -17 -11 11 -65 38 -72 31 -7 63 26 55 57 -9 33 -20 32 -19 -2z"/>
<path d="M5168 5742 c-10 -2 -15 -9 -11 -18 7 -18 -25 -56 -41 -48 -6 2 -3 -1
8 -8 10 -7 31 -23 45 -35 22 -17 29 -19 44 -8 9 7 17 17 17 24 0 18 42 13 64
-8 12 -11 38 -22 60 -25 32 -5 37 -4 32 10 -3 8 -6 20 -6 25 0 6 -5 7 -11 4
-6 -4 -17 2 -25 14 -9 12 -20 19 -25 16 -5 -4 -9 3 -9 14 0 12 -4 21 -10 21
-5 0 -7 -8 -4 -17 4 -13 3 -14 -3 -5 -6 7 -18 10 -29 7 -19 -6 -19 -6 0 9 23
18 18 20 -17 7 -20 -8 -26 -6 -30 8 -4 17 -16 20 -49 13z"/>
<path d="M5050 5733 c0 -15 18 -35 27 -32 5 2 1 12 -9 22 -10 9 -18 14 -18 10z"/>
<path d="M4700 5675 c-11 -13 -10 -14 4 -9 9 3 16 10 16 15 0 13 -6 11 -20 -6z"/>
<path d="M5404 5674 c3 -9 6 -17 6 -20 0 -8 60 -34 81 -34 21 0 21 0 -2 25
-13 13 -32 25 -41 25 -9 0 -20 5 -23 10 -10 16 -28 11 -21 -6z"/>
<path d="M5575 5660 c-3 -5 -1 -10 4 -10 6 0 11 5 11 10 0 6 -2 10 -4 10 -3 0
-8 -4 -11 -10z"/>
<path d="M5220 5596 c0 -3 10 -14 22 -26 23 -22 48 -27 48 -9 0 5 -4 8 -9 5
-5 -3 -20 4 -35 15 -14 11 -26 18 -26 15z"/>
<path d="M5500 5581 c-28 -5 -31 -8 -17 -14 30 -11 54 -8 61 8 3 8 2 14 -2 14
-4 -1 -23 -4 -42 -8z"/>
<path d="M4640 5509 c-19 -4 -29 -7 -22 -8 22 -2 13 -30 -12 -37 -14 -3 -27
-12 -30 -20 -6 -16 10 -19 19 -4 4 6 11 8 16 5 19 -12 -15 -93 -51 -122 -12
-10 -5 -11 35 -6 28 3 57 9 66 14 9 4 25 6 36 3 19 -5 19 -3 10 48 -5 29 -14
71 -20 93 -12 39 -13 40 -47 34z m30 -139 c0 -5 -5 -10 -11 -10 -5 0 -7 5 -4
10 3 6 8 10 11 10 2 0 4 -4 4 -10z"/>
<path d="M5314 5508 c-4 -6 0 -16 8 -22 8 -6 17 -19 21 -28 9 -26 37 -23 30 2
-3 11 -9 20 -14 20 -5 0 -9 7 -9 16 0 8 4 13 9 9 5 -3 12 -1 16 5 4 6 -6 10
-24 10 -16 0 -33 -5 -37 -12z"/>
<path d="M5590 5459 c-239 -86 -632 -164 -925 -184 -133 -9 -150 -19 -165 -92
-6 -32 -13 -65 -16 -74 -2 -9 5 -24 16 -34 18 -17 36 -17 237 -12 230 6 438
29 653 72 174 34 200 43 200 63 0 9 5 34 11 55 11 41 56 77 96 77 12 0 24 4
27 8 10 17 -17 98 -41 120 -28 26 -23 26 -93 1z m-219 -184 c3 -39 6 -56 7
-40 3 45 37 95 67 97 14 0 31 1 38 2 6 1 12 -8 13 -19 1 -11 2 -32 3 -47 1
-20 5 -26 16 -22 21 8 19 -9 -4 -37 -16 -20 -21 -22 -35 -10 -14 12 -18 12
-29 -1 -16 -20 -107 -34 -107 -17 0 7 -11 2 -24 -11 -16 -14 -31 -20 -42 -16
-9 3 -23 1 -30 -5 -22 -18 -44 7 -44 50 0 42 -14 29 -30 -30 -9 -33 -15 -37
-48 -42 -26 -3 -41 0 -49 11 -7 9 -13 11 -13 6 0 -6 -11 -16 -25 -22 -33 -15
-59 9 -51 47 5 23 4 22 -12 -6 -10 -18 -28 -40 -41 -50 -21 -14 -25 -15 -35
-1 -10 13 -13 13 -24 2 -15 -17 -52 -19 -52 -3 0 8 -4 8 -14 -1 -8 -6 -51 -14
-95 -17 l-81 -5 1 33 c1 49 21 110 41 123 27 17 31 2 14 -55 -21 -69 -21 -69
14 -69 23 0 31 5 36 24 10 42 44 64 112 72 l62 7 11 -33 c11 -29 13 -31 22
-14 6 10 11 28 12 39 2 28 35 33 35 5 l0 -22 18 22 c11 13 33 23 60 27 l42 6
0 -49 c0 -35 3 -45 10 -34 5 8 10 32 10 53 0 30 4 37 20 37 11 0 20 -5 20 -10
0 -6 10 -2 22 10 31 29 42 21 48 -36 l5 -49 7 39 c8 41 42 86 65 86 8 0 13 8
12 18 -3 29 0 34 19 30 13 -3 18 -17 23 -73z"/>
<path d="M5426 5284 c-9 -23 -7 -64 3 -64 9 0 21 34 21 63 0 21 -16 22 -24 1z"/>
<path d="M5300 5251 c-12 -24 -13 -61 -1 -61 8 0 31 52 31 71 0 16 -19 9 -30
-10z"/>
<path d="M5034 5195 c-10 -41 2 -52 19 -18 21 39 21 43 2 43 -8 0 -17 -11 -21
-25z"/>
<path d="M4790 5176 c-6 -8 -10 -25 -8 -38 3 -22 5 -21 21 9 9 18 17 34 17 38
0 10 -18 5 -30 -9z"/>
<path d="M4860 5160 c0 -25 2 -29 13 -18 8 7 12 20 9 30 -7 29 -22 21 -22 -12z"/>
<path d="M5200 5440 c0 -5 5 -10 10 -10 6 0 10 5 10 10 0 6 -4 10 -10 10 -5 0
-10 -4 -10 -10z"/>
<path d="M4458 5361 c-16 -27 -28 -52 -28 -55 0 -5 26 9 59 30 8 6 12 74 4 74
-4 0 -20 -22 -35 -49z"/>
<path d="M4730 5360 c0 -5 10 -10 23 -10 18 0 19 2 7 10 -19 13 -30 13 -30 0z"/>
<path d="M4448 5259 c-10 -5 -18 -14 -18 -19 0 -14 28 -1 34 16 6 16 6 16 -16
3z"/>
<path d="M4387 5203 c-24 -6 -83 -123 -62 -123 8 0 15 5 15 11 0 26 43 97 56
92 7 -2 10 -12 7 -20 -4 -11 -2 -14 8 -11 8 2 15 17 17 31 3 27 -2 30 -41 20z"/>
<path d="M5866 5090 c-132 -200 -396 -355 -715 -422 -141 -29 -445 -35 -721
-14 -118 9 -232 19 -252 22 l-37 6 -25 -82 c-70 -220 -114 -420 -190 -871 -46
-269 -116 -725 -116 -751 0 -11 23 -4 88 27 294 144 643 182 1274 139 227 -15
315 -14 468 7 79 11 239 51 299 75 42 16 40 -26 15 369 -8 132 -19 314 -24
405 -5 91 -13 185 -16 210 -4 25 -10 243 -13 484 l-6 440 -29 -44z m-71 -420
c-6 -20 9 -28 20 -10 3 6 15 10 26 10 10 0 19 -4 19 -10 0 -5 -7 -10 -15 -10
-18 0 -20 -17 -2 -23 22 -8 -7 -41 -44 -49 -19 -3 -35 -5 -37 -3 -7 7 21 115
30 115 5 0 6 -9 3 -20z m-198 -30 c-6 -22 8 -37 18 -20 10 16 25 2 26 -23 0
-21 1 -21 12 3 14 30 26 40 43 33 6 -2 15 0 19 6 3 6 15 11 26 11 29 0 25 -38
-6 -50 -30 -12 -34 -24 -4 -15 15 5 20 3 17 -6 -7 -20 -50 -24 -63 -5 -11 14
-13 13 -23 -9 -14 -31 -42 -33 -42 -4 0 20 -1 20 -22 -6 -18 -23 -27 -26 -55
-22 -18 3 -33 2 -33 -4 0 -5 -6 -9 -14 -9 -9 0 -12 8 -8 25 6 35 -7 31 -19 -5
-15 -42 -41 -40 -32 2 8 41 -13 30 -22 -12 -4 -17 -13 -30 -22 -30 -10 0 -13
6 -9 16 5 13 2 15 -16 10 -13 -3 -26 -6 -29 -6 -4 0 -9 -9 -12 -20 -3 -11 -14
-21 -26 -21 -12 -1 -27 -2 -33 -3 -7 -1 -16 13 -19 29 l-6 30 -16 -36 c-12
-26 -24 -38 -44 -42 -15 -3 -32 -2 -37 3 -5 5 -15 2 -23 -6 -8 -8 -27 -14 -41
-13 -15 1 -57 -5 -94 -14 -37 -8 -69 -13 -71 -11 -2 2 1 29 6 59 7 37 15 55
25 55 12 0 13 -9 9 -44 -6 -40 -5 -43 13 -39 13 3 20 16 22 37 2 19 8 31 18
31 10 0 14 -8 12 -27 -4 -38 5 -35 22 6 9 22 21 35 33 35 39 0 76 10 84 22 6
10 11 10 22 1 8 -7 21 -10 28 -7 8 2 28 7 44 10 72 14 85 14 85 1 0 -20 48 -7
55 14 3 10 14 18 23 18 9 -1 35 2 56 6 25 5 41 4 46 -3 4 -7 20 5 40 29 38 45
45 49 37 20z m-875 -431 c-61 -145 -140 -338 -177 -429 -125 -310 -207 -450
-287 -488 -41 -20 -272 -52 -284 -39 -11 10 54 133 78 149 14 9 43 21 65 27
21 6 49 22 62 35 24 26 101 196 101 224 0 10 -40 153 -90 317 -49 165 -90 310
-90 323 0 36 40 68 95 75 27 4 52 4 56 0 4 -5 37 -107 75 -228 37 -121 70
-223 73 -227 3 -4 47 95 96 219 112 281 115 284 265 301 36 5 66 7 68 6 2 -1
-46 -121 -106 -265z m956 241 c57 -33 62 -52 10 -41 -57 12 -111 2 -180 -33
-38 -19 -68 -30 -68 -25 0 17 80 96 113 113 45 22 65 20 125 -14z m58 -89 c77
-35 110 -104 101 -209 -4 -36 -9 -67 -11 -69 -4 -4 -342 -92 -355 -93 -8 0 11
-76 24 -97 34 -52 126 -31 200 46 46 48 81 54 91 16 9 -36 -3 -73 -42 -132
-48 -74 -123 -121 -210 -135 -38 -6 -75 -12 -81 -14 -20 -5 -15 -25 7 -31 11
-3 20 -14 20 -24 0 -11 5 -19 10 -19 6 0 10 9 10 20 0 13 7 20 19 20 11 0 27
3 36 7 15 5 16 1 10 -28 -3 -19 -9 -42 -12 -52 -5 -18 -4 -18 20 -2 15 9 40
15 59 13 28 -3 33 -7 36 -32 2 -15 -4 -63 -14 -105 -10 -42 -17 -80 -15 -85 1
-5 -5 -6 -14 -2 -9 3 -22 6 -28 6 -7 0 -26 13 -44 30 l-31 29 -9 -37 c-8 -33
-13 -37 -42 -40 -26 -3 -32 0 -28 11 3 8 9 35 12 61 11 69 -10 57 -25 -14 -13
-61 -29 -80 -66 -80 -14 0 -15 6 -10 38 4 20 8 53 10 72 2 19 1 23 -1 8 -2
-16 -8 -28 -13 -28 -4 0 -13 -22 -20 -49 -9 -39 -17 -50 -36 -55 -38 -10 -43
-1 -28 61 22 94 20 99 -26 62 -28 -23 -43 -45 -50 -73 -15 -61 -24 -71 -62
-72 -19 0 -40 -4 -46 -8 -7 -4 -16 -5 -21 -2 -5 3 -24 0 -42 -8 -42 -17 -146
-30 -152 -19 -4 7 44 236 57 268 5 14 57 26 137 30 l55 3 2 -37 c2 -25 -4 -46
-18 -63 -17 -23 -18 -27 -5 -38 27 -23 14 -87 -24 -118 -14 -11 -13 -12 5 -3
12 6 24 8 27 5 3 -4 6 2 6 12 0 11 10 57 23 104 l23 85 38 3 c32 3 37 7 37 28
0 22 -4 24 -42 24 -32 0 -39 3 -28 10 8 5 26 10 40 10 20 0 22 2 10 10 -13 8
-12 10 3 10 26 0 20 31 -13 63 -47 47 -18 74 44 42 15 -8 39 -17 52 -19 21 -4
24 -1 24 25 l0 29 28 -31 c24 -27 33 -31 58 -24 l29 7 -25 17 c-97 64 -127
131 -117 265 6 83 22 140 58 213 79 157 257 242 385 184z m-564 -92 c61 -31
91 -86 96 -179 14 -244 -146 -459 -347 -466 l-66 -3 -17 -91 c-18 -97 -33
-130 -72 -155 -23 -15 -142 -43 -149 -34 -2 2 28 195 67 429 l72 425 84 43
c127 64 246 75 332 31z m716 -679 c31 -56 -33 -169 -108 -191 -86 -26 -125 16
-97 105 10 29 25 60 35 69 58 53 145 62 170 17z"/>
<path d="M5790 4621 c0 -12 6 -21 15 -21 8 0 15 3 15 6 0 3 -7 12 -15 20 -13
14 -15 13 -15 -5z"/>
<path d="M5715 4620 c-3 -5 -2 -10 4 -10 5 0 13 5 16 10 3 6 2 10 -4 10 -5 0
-13 -4 -16 -10z"/>
<path d="M5553 4575 c-3 -9 -3 -18 0 -21 9 -9 27 6 27 22 0 19 -19 18 -27 -1z"/>
<path d="M5287 4533 c-4 -3 -7 -13 -7 -21 0 -12 3 -12 15 -2 8 7 15 16 15 21
0 11 -14 12 -23 2z"/>
<path d="M5176 4504 c-9 -22 3 -32 14 -14 12 19 12 30 1 30 -5 0 -12 -7 -15
-16z"/>
<path d="M5110 4506 c0 -9 30 -14 35 -6 4 6 -3 10 -14 10 -12 0 -21 -2 -21 -4z"/>
<path d="M5070 4483 c0 -17 4 -20 22 -15 16 4 18 7 8 10 -8 3 -18 10 -22 16
-5 6 -8 2 -8 -11z"/>
<path d="M5581 4246 c-26 -14 -81 -91 -81 -114 0 -9 6 -12 17 -8 9 4 45 14 80
22 l63 16 0 37 c0 58 -29 75 -79 47z"/>
<path d="M5472 3564 c-8 -9 -10 -23 -6 -37 7 -20 8 -19 16 12 11 39 8 45 -10
25z"/>
<path d="M5551 3494 c-26 -33 -26 -38 1 -64 30 -28 35 -26 42 18 4 20 9 45 12
55 8 27 -31 21 -55 -9z"/>
<path d="M4975 3459 c-9 -38 -5 -42 31 -29 54 21 61 60 10 60 -30 0 -35 -4
-41 -31z"/>
<path d="M4964 3372 c-6 -4 -14 -22 -17 -41 -7 -33 -7 -33 25 -27 66 13 92 76
31 76 -15 0 -33 -4 -39 -8z"/>
<path d="M4974 4160 c-12 -5 -25 -13 -29 -19 -6 -10 -65 -351 -65 -378 0 -19
41 -16 77 6 63 39 113 166 113 289 0 53 -4 67 -25 87 -26 27 -37 29 -71 15z"/>
<path d="M5782 3563 c-31 -12 -55 -103 -32 -118 32 -20 80 36 80 95 0 30 -14
37 -48 23z"/>
<path d="M5248 5053 c6 -2 18 -2 25 0 6 3 1 5 -13 5 -14 0 -19 -2 -12 -5z"/>
<path d="M5128 4758 c5 -5 16 -8 23 -6 8 3 3 7 -10 11 -17 4 -21 3 -13 -5z"/>
<path d="M5083 4743 c9 -2 23 -2 30 0 6 3 -1 5 -18 5 -16 0 -22 -2 -12 -5z"/>
<path d="M4378 4733 c7 -3 16 -2 19 1 4 3 -2 6 -13 5 -11 0 -14 -3 -6 -6z"/>
<path d="M4560 3083 c-267 -11 -458 -61 -637 -167 -137 -80 -129 -68 -149
-248 -10 -87 -16 -160 -13 -162 2 -2 42 -7 89 -10 47 -4 123 -9 170 -12 85 -7
100 -13 100 -47 0 -13 -5 -17 -19 -12 -12 3 -21 0 -25 -10 -3 -8 -10 -15 -16
-15 -6 0 -8 5 -5 10 3 6 1 10 -4 10 -6 0 -11 -6 -11 -12 0 -10 -2 -10 -8 -1
-9 14 -72 30 -72 19 0 -4 10 -11 23 -16 26 -11 -134 -3 -195 10 -21 4 -38 4
-38 0 0 -11 46 -17 228 -31 83 -7 152 -16 152 -21 0 -19 -21 -48 -34 -48 -8 0
-16 -6 -19 -14 -3 -8 -18 -16 -34 -18 -37 -4 -32 -21 9 -29 29 -6 28 -7 -15
-8 -27 0 -56 3 -65 8 -27 14 -80 24 -62 11 12 -8 11 -10 -7 -10 -16 0 -23 8
-28 30 -4 17 -10 30 -13 31 -4 1 -27 3 -51 5 -24 2 -50 9 -57 15 -11 9 -14 7
-14 -9 0 -15 5 -19 23 -16 l22 5 -22 -12 c-26 -14 -33 -37 -33 -109 l0 -55
148 -3 c81 -2 178 -7 215 -11 37 -4 70 -4 73 1 3 5 4 84 3 176 l-2 167 96 -2
c89 -2 96 -1 102 18 4 12 13 18 20 15 8 -3 16 0 19 7 3 7 4 3 3 -8 -1 -11 -9
-23 -17 -27 -8 -4 26 -7 77 -7 86 -1 91 0 86 19 -3 12 0 20 6 20 7 0 9 4 6 10
-3 5 5 15 19 21 14 7 24 15 21 18 -5 9 72 8 81 -1 4 -5 17 -8 28 -8 12 0 43
-12 70 -26 36 -19 51 -23 56 -14 6 9 9 9 12 -1 3 -10 11 -7 29 10 33 32 78 54
95 47 9 -4 12 -2 8 5 -5 8 -1 8 13 0 22 -11 105 -14 188 -7 28 2 55 -1 62 -6
7 -5 27 -12 45 -14 65 -9 73 -11 96 -23 12 -6 20 -16 17 -22 -10 -15 5 -31 19
-20 7 6 17 6 26 1 12 -8 15 -41 15 -180 0 -93 4 -170 8 -170 4 0 8 78 9 172 2
95 7 176 12 180 5 3 23 4 40 1 31 -5 467 25 475 32 6 6 -25 554 -31 561 -4 3
-48 -2 -100 -10 -125 -22 -424 -31 -568 -17 -204 20 -627 39 -750 34z m-623
-265 c6 -7 18 -35 28 -63 10 -27 22 -54 26 -58 4 -5 17 21 29 57 16 49 26 66
40 66 18 0 22 -15 46 -168 7 -42 6 -44 -17 -40 -21 3 -25 10 -33 68 l-9 64
-23 -59 c-31 -85 -54 -86 -79 -5 -20 66 -28 64 -39 -12 -7 -44 -18 -59 -29
-40 -5 7 19 163 28 190 2 6 8 12 13 12 5 0 14 -6 19 -12z m1483 5 c0 -4 -8
-15 -17 -25 -14 -16 -16 -36 -14 -109 3 -84 2 -89 -18 -89 -19 0 -21 6 -21 71
0 61 -2 70 -16 65 -9 -3 -20 -6 -25 -6 -5 0 -9 -29 -9 -64 0 -55 -3 -64 -20
-69 -19 -5 -20 0 -20 63 0 38 -3 71 -7 73 -5 3 -18 1 -30 -4 -21 -7 -23 -15
-23 -74 0 -63 -1 -66 -22 -63 -21 3 -23 9 -26 86 l-3 82 56 0 c47 0 55 3 55
19 0 27 24 43 62 39 38 -4 41 -22 3 -26 -36 -5 -32 -32 5 -32 21 0 30 5 30 16
0 27 17 50 39 51 12 1 21 -1 21 -4z m-1080 -33 c0 -20 5 -30 15 -30 8 0 15 7
15 15 0 8 9 15 20 15 11 0 20 -7 20 -15 0 -8 7 -15 15 -15 8 0 15 -5 15 -10 0
-6 -7 -13 -15 -16 -11 -4 -15 -21 -15 -55 0 -37 4 -49 15 -49 22 0 18 -27 -5
-33 -34 -9 -49 14 -52 78 -2 44 -7 61 -18 63 -12 2 -14 -9 -12 -68 4 -69 3
-70 -22 -70 l-26 0 0 110 0 110 25 0 c21 0 25 -5 25 -30z m1259 -80 c2 -94 0
-100 -19 -100 -18 0 -20 7 -21 73 0 39 -2 81 -4 91 -5 26 2 36 24 36 17 0 19
-10 20 -100z m-1101 -4 c4 -104 1 -116 -28 -109 -20 5 -21 12 -19 97 2 101 4
109 27 104 14 -3 18 -19 20 -92z m1390 67 c2 -9 -8 -13 -32 -13 -46 0 -46 -16
0 -35 31 -13 35 -18 32 -47 -4 -40 -43 -63 -89 -53 -39 9 -32 30 11 30 46 0
49 21 6 39 -30 12 -36 20 -36 44 0 20 7 32 23 40 28 14 79 11 85 -5z m-138
-13 c11 -11 20 -29 20 -39 0 -17 -8 -20 -52 -23 -47 -3 -53 -5 -50 -23 7 -35
26 -40 76 -20 14 6 17 4 15 -10 -5 -21 -52 -37 -86 -29 -55 14 -71 96 -28 139
30 31 77 33 105 5z m-1580 -55 c0 -63 1 -65 25 -65 24 0 25 2 25 66 0 62 1 65
23 62 21 -3 22 -8 22 -83 l0 -80 -59 1 c-65 2 -75 10 -77 64 -1 19 -2 50 -3
67 -1 28 3 33 22 33 21 0 22 -4 22 -65z m1370 45 c0 -16 -4 -18 -24 -10 -45
17 -75 -50 -42 -95 12 -17 18 -18 40 -7 23 10 26 9 26 -7 0 -13 -9 -21 -30
-26 -42 -9 -68 2 -86 36 -31 60 13 129 82 129 27 0 34 -4 34 -20z m-926 4 c9
-3 16 -12 16 -19 0 -10 -10 -12 -35 -8 -45 7 -46 -11 -2 -33 52 -27 60 -51 27
-84 -23 -23 -68 -26 -96 -6 -14 11 -16 18 -8 26 8 8 14 9 18 1 10 -16 56 -14
56 2 0 7 -16 21 -35 30 -77 37 -22 122 59 91z m86 -64 c5 -63 7 -67 40 -61 5
0 10 29 12 64 3 54 5 62 23 62 18 0 20 -7 22 -82 l2 -82 -57 0 c-80 0 -92 14
-92 101 0 66 1 69 23 66 20 -3 23 -10 27 -68z m240 60 c11 -6 22 -26 26 -45
12 -67 -15 -115 -66 -115 -22 0 -29 -5 -32 -22 -2 -15 -11 -24 -25 -26 -23 -3
-23 -2 -23 102 l0 105 38 4 c20 2 43 4 50 5 7 1 22 -3 32 -8z m169 -7 c11 -10
22 -29 23 -42 3 -23 -1 -25 -46 -28 -58 -3 -60 -5 -51 -33 6 -20 12 -22 51
-16 33 4 44 2 44 -8 0 -33 -93 -34 -125 -1 -72 71 26 192 104 128z m-628 -235
c-3 -21 -6 -26 -9 -15 -3 17 3 47 11 47 2 0 1 -15 -2 -32z m-626 -246 c-1 -1
-9 0 -18 4 -14 5 -15 10 -5 27 12 22 12 22 18 -3 4 -14 6 -26 5 -28z m256 5
c-13 -13 -26 -3 -16 12 3 6 11 8 17 5 6 -4 6 -10 -1 -17z m-68 -33 c42 -3 77
-10 77 -15 0 -12 -17 -11 -155 7 -129 17 -171 30 -65 21 36 -4 100 -9 143 -13z
m-51 -32 c6 -6 -4 -12 -26 -16 -42 -8 -216 -9 -223 -2 -3 3 -3 11 0 19 4 11
30 13 122 11 65 -1 122 -7 127 -12z"/>
<path d="M5677 2743 c-14 -13 -6 -23 18 -23 16 0 25 6 25 15 0 15 -31 21 -43
8z"/>
<path d="M4881 2720 c-16 -9 -19 -76 -4 -91 23 -23 43 -2 43 45 0 45 -14 62
-39 46z"/>
<path d="M5037 2724 c-15 -15 -6 -24 24 -24 20 0 29 4 27 13 -5 14 -40 21 -51
11z"/>
<path d="M5360 2510 c0 -5 5 -10 10 -10 6 0 10 5 10 10 0 6 -4 10 -10 10 -5 0
-10 -4 -10 -10z"/>
<path d="M3756 2482 c-7 -11 37 -32 69 -32 14 0 25 -4 25 -10 0 -5 12 -10 28
-10 19 0 23 3 13 9 -10 7 -5 11 18 16 44 10 38 21 -11 21 -24 -1 -64 3 -89 8
-28 5 -49 4 -53 -2z"/>
<path d="M4710 2458 c3 -28 111 -343 119 -346 7 -2 11 18 12 60 0 35 1 100 2
146 1 45 -1 82 -5 82 -5 0 -8 -57 -8 -127 0 -129 -7 -144 -29 -63 -36 131 -75
250 -83 250 -4 0 -8 -1 -8 -2z"/>
<path d="M4830 2436 c0 -14 5 -26 10 -26 6 0 10 9 10 19 0 11 -4 23 -10 26 -6
4 -10 -5 -10 -19z"/>
<path d="M4040 2440 c0 -5 5 -10 10 -10 6 0 10 5 10 10 0 6 -4 10 -10 10 -5 0
-10 -4 -10 -10z"/>
<path d="M4803 2415 c0 -22 2 -30 4 -17 2 12 2 30 0 40 -3 9 -5 -1 -4 -23z"/>
<path d="M3935 2430 c3 -5 8 -10 11 -10 2 0 4 5 4 10 0 6 -5 10 -11 10 -5 0
-7 -4 -4 -10z"/>
<path d="M5880 2386 c0 -13 -6 -27 -12 -29 -7 -3 10 -6 38 -6 50 -1 51 -1 51
29 0 28 -3 30 -39 30 -34 0 -38 -3 -38 -24z"/>
<path d="M5790 2390 c0 -5 5 -10 10 -10 17 0 11 -38 -7 -43 -10 -3 -3 -5 15
-6 24 -1 32 3 32 17 -1 32 -50 74 -50 42z"/>
<path d="M5780 2360 c0 -5 5 -10 10 -10 6 0 10 5 10 10 0 6 -4 10 -10 10 -5 0
-10 -4 -10 -10z"/>
<path d="M3907 2313 c-12 -11 -8 -23 8 -23 8 0 15 7 15 15 0 16 -12 20 -23 8z"/>
<path d="M5844 2296 c-3 -8 -4 -25 -2 -38 3 -24 3 -24 88 -19 27 1 30 4 30 36
l0 35 -55 0 c-39 0 -57 -4 -61 -14z"/>
<path d="M5544 2245 c-8 -33 -2 -39 42 -41 28 -1 37 4 44 20 12 33 1 46 -41
46 -33 0 -40 -4 -45 -25z m29 0 c-3 -9 -8 -14 -10 -11 -3 3 -2 9 2 15 9 16 15
13 8 -4z"/>
<path d="M5745 2179 c-33 -5 -66 -7 -73 -4 -8 3 -10 0 -6 -6 7 -12 139 -3 164
12 19 11 -1 10 -85 -2z"/>
<path d="M4632 2144 c-12 -19 -19 -34 -14 -34 9 0 46 59 40 65 -2 2 -13 -12
-26 -31z"/>
<path d="M5840 2150 l-145 -18 103 2 c56 1 102 -1 102 -5 0 -3 11 -4 24 -2 29
6 36 -15 36 -113 0 -56 -3 -73 -16 -78 -8 -3 -13 -9 -11 -13 3 -5 -1 -14 -9
-21 -8 -7 -14 -9 -14 -3 0 5 -17 19 -37 31 -35 21 -46 22 -148 16 -60 -4 -155
-11 -210 -16 -55 -6 -297 -13 -538 -16 l-437 -7 25 -42 c13 -23 21 -45 18 -49
-3 -3 0 -6 9 -6 26 0 43 -46 31 -83 -6 -18 -14 -48 -17 -67 -8 -40 -47 -89
-73 -91 -10 -1 5 -5 32 -10 28 -5 280 -8 560 -7 500 3 566 0 645 -30 8 -3 24
-7 35 -8 65 -9 82 -12 98 -19 10 -4 17 -3 17 5 0 7 14 10 37 8 30 -2 39 -8 44
-28 6 -22 7 -23 8 -4 1 26 24 37 40 21 14 -14 15 103 1 333 -19 339 -20 340
-44 339 -11 -1 -86 -10 -166 -19z m-200 -250 c0 -5 -13 -10 -30 -10 -16 0 -30
5 -30 10 0 6 14 10 30 10 17 0 30 -4 30 -10z m140 -29 c27 -51 -2 -111 -54
-111 -17 0 -37 5 -44 12 -17 17 -15 78 5 100 22 25 79 24 93 -1z m-246 3 c23
-9 20 -27 -3 -19 -36 11 -66 -46 -42 -83 4 -7 21 -12 37 -10 25 3 32 10 49 57
11 30 25 56 32 58 6 2 20 -21 32 -52 25 -66 26 -75 6 -75 -8 0 -15 6 -15 14 0
33 -45 29 -55 -4 -4 -11 -12 -17 -20 -14 -8 3 -26 -7 -41 -23 -25 -26 -27 -26
-21 -5 3 12 1 22 -3 22 -19 0 -40 34 -40 64 0 32 18 57 50 69 8 3 16 6 17 6 1
1 8 -2 17 -5z m-109 -72 c12 -34 19 -65 14 -68 -13 -7 -29 5 -29 22 0 23 -47
18 -53 -6 -3 -13 -14 -20 -31 -20 -21 0 -26 6 -32 38 l-8 37 -11 -40 c-14 -49
-35 -51 -49 -5 l-10 35 -10 -37 c-11 -44 -30 -52 -22 -10 3 15 8 46 11 70 9
56 29 54 46 -5 l13 -48 15 48 c8 26 20 47 27 47 13 0 24 -31 24 -70 1 -53 17
-53 34 2 9 29 19 59 21 66 9 26 28 5 50 -56z m502 -29 c-2 -21 -4 -6 -4 32 0
39 2 55 4 38 2 -18 2 -50 0 -70z m-1179 44 c3 -21 -2 -29 -22 -39 -17 -7 -26
-19 -26 -35 0 -16 -6 -23 -20 -23 -18 0 -20 7 -20 63 0 35 2 66 5 69 3 3 22 2
43 -1 31 -5 37 -11 40 -34z m401 -83 c-14 -17 -61 -18 -77 -2 -18 18 -16 118
3 118 12 0 15 -13 15 -55 0 -52 1 -55 25 -55 25 0 31 15 27 75 0 11 2 27 6 35
4 8 8 -11 10 -43 2 -35 -2 -64 -9 -73z m-309 106 c0 -5 -9 -10 -20 -10 -30 0
-27 -40 3 -41 l22 -2 -22 -4 c-38 -7 -28 -50 10 -44 4 0 7 -3 7 -9 0 -5 -16
-10 -35 -10 l-35 0 0 65 0 65 35 0 c19 0 35 -4 35 -10z m100 -11 c9 -16 8 -24
-4 -38 -15 -16 -15 -20 5 -44 20 -26 20 -27 1 -27 -11 0 -27 10 -35 23 l-16
22 0 -22 c-1 -14 -7 -23 -16 -23 -12 0 -15 14 -15 65 l0 65 35 0 c25 0 37 -6
45 -21z m100 11 c0 -5 -9 -10 -20 -10 -27 0 -25 -26 3 -35 l22 -8 -22 -4 c-18
-3 -23 -11 -23 -34 0 -19 -5 -29 -15 -29 -12 0 -15 14 -15 65 l0 65 35 0 c19
0 35 -4 35 -10z m541 -120 c23 -13 26 -62 3 -84 -8 -9 -26 -16 -40 -16 -22 0
-24 4 -24 48 0 64 15 76 61 52z m93 -37 c19 -56 19 -53 1 -53 -8 0 -15 7 -15
15 0 22 -28 18 -35 -5 -4 -11 -10 -18 -14 -16 -12 8 21 106 35 106 7 0 19 -21
28 -47z m-266 18 c3 -9 -1 -11 -15 -7 -27 9 -47 -17 -39 -50 8 -30 30 -27 34
4 5 33 22 26 22 -8 0 -30 -9 -36 -50 -30 -23 2 -41 31 -34 54 13 45 71 71 82
37z m80 -23 c16 -54 16 -62 3 -66 -6 -2 -11 3 -11 12 0 9 -8 16 -20 16 -11 0
-20 -7 -20 -15 0 -8 -5 -15 -11 -15 -6 0 -9 6 -6 14 3 8 11 32 18 55 16 53 31
52 47 -1z m-300 16 c31 -22 30 -69 -3 -90 -23 -15 -27 -15 -50 0 -33 21 -34
68 -3 90 12 9 25 16 28 16 3 0 16 -7 28 -16z m81 -16 l21 -33 0 33 c0 17 5 32
10 32 6 0 10 -25 10 -55 0 -30 -3 -55 -7 -55 -5 0 -20 14 -35 32 l-27 33 -1
-32 c0 -18 -3 -33 -7 -33 -5 0 -6 25 -5 55 2 30 7 55 12 55 4 0 17 -15 29 -32z
m-431 -10 c2 -19 -2 -28 -17 -33 -12 -3 -21 -15 -21 -26 0 -10 -7 -19 -15 -19
-12 0 -15 13 -15 56 l0 55 33 -3 c26 -2 33 -8 35 -30z m79 16 c3 -9 1 -25 -5
-34 -9 -14 -8 -21 3 -30 8 -7 15 -16 15 -21 0 -15 -22 -10 -36 9 -13 16 -13
16 -14 -1 0 -10 -6 -17 -12 -14 -8 2 -13 23 -13 55 0 50 1 52 28 52 16 0 30
-7 34 -16z m110 -10 c15 -24 15 -29 2 -53 -11 -19 -23 -26 -44 -26 -21 0 -33
7 -44 26 -13 24 -13 29 2 53 11 16 27 26 42 26 15 0 31 -10 42 -26z m53 -19
c0 -34 4 -45 16 -45 8 0 12 -4 9 -10 -3 -5 -17 -10 -31 -10 -23 0 -24 3 -24
55 0 42 3 55 15 55 11 0 15 -12 15 -45z"/>
<path d="M5704 1857 c-3 -9 -4 -28 -2 -44 2 -22 8 -28 28 -28 23 0 25 4 25 40
0 34 -3 40 -23 43 -13 2 -24 -3 -28 -11z"/>
<path d="M5596 1821 c-4 -7 -5 -15 -2 -18 9 -9 19 4 14 18 -4 11 -6 11 -12 0z"/>
<path d="M5376 1805 c-3 -9 0 -15 9 -15 9 0 12 6 9 15 -4 8 -7 15 -9 15 -2 0
-5 -7 -9 -15z"/>
<path d="M4700 1810 c0 -11 5 -20 10 -20 6 0 10 9 10 20 0 11 -4 20 -10 20 -5
0 -10 -9 -10 -20z"/>
<path d="M4890 1810 c0 -13 5 -20 13 -17 6 2 12 10 12 17 0 7 -6 15 -12 18 -8
2 -13 -5 -13 -18z"/>
<path d="M5540 1675 c0 -37 22 -49 34 -19 9 23 -2 54 -20 54 -9 0 -14 -11 -14
-35z"/>
<path d="M5450 1670 c0 -5 5 -10 11 -10 5 0 7 5 4 10 -3 6 -8 10 -11 10 -2 0
-4 -4 -4 -10z"/>
<path d="M5142 1673 c-11 -20 2 -63 18 -63 16 0 29 43 18 63 -5 9 -13 17 -18
17 -5 0 -13 -8 -18 -17z"/>
<path d="M4800 1664 c0 -8 5 -12 10 -9 6 3 10 10 10 16 0 5 -4 9 -10 9 -5 0
-10 -7 -10 -16z"/>
<path d="M4880 1664 c0 -8 5 -12 10 -9 6 3 10 10 10 16 0 5 -4 9 -10 9 -5 0
-10 -7 -10 -16z"/>
<path d="M4971 1676 c-19 -23 -10 -61 14 -61 14 0 21 8 23 26 4 33 -20 56 -37
35z"/>
<path d="M5905 2101 c-3 -5 -2 -12 3 -15 5 -3 9 1 9 9 0 17 -3 19 -12 6z"/>
<path d="M3860 2068 c0 -17 18 -44 24 -37 8 7 -5 49 -15 49 -5 0 -9 -6 -9 -12z"/>
<path d="M3897 2073 c-9 -15 1 -40 18 -47 8 -3 17 -1 21 5 4 6 11 5 21 -3 14
-11 15 -10 8 12 -12 39 -22 44 -30 13 l-7 -28 -12 30 c-7 18 -15 25 -19 18z"/>
<path d="M5764 2066 c-9 -24 4 -48 23 -44 12 2 18 12 18 28 0 29 -32 41 -41
16z m36 -16 c0 -19 -11 -26 -23 -14 -8 8 3 34 14 34 5 0 9 -9 9 -20z"/>
<path d="M5825 2071 c-3 -5 0 -13 6 -16 5 -4 8 -14 4 -24 -6 -15 -5 -15 11 1
15 15 15 18 1 32 -9 9 -18 12 -22 7z"/>
<path d="M3980 2046 c0 -32 17 -34 23 -3 l4 22 2 -22 c0 -13 6 -23 12 -23 21
0 4 45 -18 48 -19 3 -23 -1 -23 -22z"/>
<path d="M4040 2040 c0 -17 5 -30 13 -30 7 0 12 13 12 30 0 17 -5 30 -12 30
-8 0 -13 -13 -13 -30z"/>
<path d="M5624 2063 c-6 -2 -9 -15 -6 -31 l5 -27 8 29 c9 33 9 35 -7 29z"/>
<path d="M5660 2061 c0 -5 -3 -18 -7 -28 -3 -10 -3 -15 2 -11 4 4 14 3 22 -3
14 -12 16 -6 7 29 -6 21 -24 31 -24 13z"/>
<path d="M5700 2045 c0 -31 17 -33 23 -2 l4 22 2 -23 c1 -28 21 -20 21 9 0 14
-7 19 -25 19 -20 0 -25 -5 -25 -25z"/>
<path d="M4080 2035 c0 -14 5 -25 10 -25 6 0 10 11 10 25 0 14 -4 25 -10 25
-5 0 -10 -11 -10 -25z"/>
<path d="M4110 2036 c0 -15 7 -26 20 -29 17 -4 20 0 20 24 0 22 -5 29 -20 29
-14 0 -20 -7 -20 -24z"/>
<path d="M4174 2044 c-4 -10 -9 -23 -12 -28 -3 -5 0 -6 6 -2 6 3 13 2 17 -4
12 -19 26 -10 20 13 -11 34 -23 43 -31 21z"/>
<path d="M5490 2046 c0 -9 -4 -16 -10 -16 -5 0 -10 5 -10 10 0 6 -4 10 -10 10
-13 0 -13 -21 0 -40 8 -12 11 -13 19 -1 7 11 9 11 13 0 4 -11 10 -12 25 -2 16
9 23 9 33 0 10 -10 11 -7 6 13 -3 14 -6 28 -6 33 0 17 -17 5 -27 -20 -10 -25
-11 -26 -12 -6 -1 25 -21 42 -21 19z"/>
<path d="M5570 2035 c0 -14 5 -25 10 -25 6 0 10 11 10 25 0 14 -4 25 -10 25
-5 0 -10 -11 -10 -25z"/>
<path d="M4337 2043 c-10 -9 -9 -41 2 -47 5 -3 11 8 13 24 4 29 -1 37 -15 23z"/>
<path d="M4381 2036 c-17 -20 -2 -48 23 -44 24 3 34 37 14 49 -18 12 -24 11
-37 -5z m29 -16 c0 -11 -4 -20 -10 -20 -5 0 -10 9 -10 20 0 11 5 20 10 20 6 0
10 -9 10 -20z"/>
<path d="M5360 2020 c0 -17 5 -30 13 -30 7 0 12 13 12 30 0 17 -5 30 -12 30
-8 0 -13 -13 -13 -30z"/>
<path d="M5404 2039 c-3 -6 -1 -15 6 -19 7 -4 10 -13 6 -19 -5 -7 -1 -9 8 -5
18 7 21 20 6 29 -6 4 -8 11 -5 16 4 5 2 9 -4 9 -5 0 -13 -5 -17 -11z"/>
<path d="M4440 2016 c0 -19 5 -24 20 -23 14 1 20 8 20 24 0 16 -6 23 -20 23
-15 0 -20 -7 -20 -24z"/>
<path d="M4497 2026 c-10 -26 -8 -43 3 -26 6 10 10 11 10 3 0 -7 5 -13 10 -13
14 0 13 13 -3 34 -13 18 -14 18 -20 2z"/>
<path d="M4536 2031 c-7 -11 3 -41 14 -41 4 0 5 11 2 25 -5 27 -8 30 -16 16z"/>
<path d="M4572 2010 c0 -19 2 -27 5 -17 2 9 2 25 0 35 -3 9 -5 1 -5 -18z"/>
<path d="M4604 2025 c-9 -22 3 -45 23 -45 15 0 15 2 -3 15 -19 15 -19 15 0 30
18 13 18 15 3 15 -10 0 -20 -7 -23 -15z"/>
<path d="M4660 2031 c0 -5 -3 -18 -6 -28 -4 -13 -3 -14 4 -5 7 11 10 11 15 -2
12 -31 26 -17 16 14 -10 28 -29 42 -29 21z"/>
<path d="M4830 2033 c0 -6 -3 -19 -7 -29 -4 -11 -3 -15 4 -11 6 4 14 1 16 -5
4 -10 8 -9 16 2 7 10 11 11 11 3 0 -19 27 -16 39 5 10 16 10 16 11 0 0 -10 5
-18 11 -18 6 0 8 9 4 23 -12 36 -23 42 -31 13 -8 -34 -24 -34 -24 2 -1 25 -2
26 -14 9 -14 -18 -15 -18 -25 0 -6 10 -11 13 -11 6z"/>
<path d="M4957 2033 c-4 -3 -7 -16 -7 -28 0 -18 6 -22 33 -22 17 -1 26 1 20 4
-7 3 -13 16 -13 29 0 23 -18 32 -33 17z"/>
<path d="M5010 2025 c0 -11 5 -27 10 -35 8 -12 11 -13 19 -1 7 11 9 11 13 0 9
-25 19 -2 12 26 -6 24 -8 25 -16 11 -9 -16 -11 -16 -24 1 -13 17 -13 17 -14
-2z"/>
<path d="M5084 2026 c-9 -24 4 -48 23 -44 12 2 18 12 18 28 0 29 -32 41 -41
16z m36 -16 c0 -11 -4 -20 -9 -20 -14 0 -23 18 -16 30 10 17 25 11 25 -10z"/>
<path d="M5151 2008 c0 -18 3 -28 5 -21 3 7 11 10 18 7 8 -3 12 3 11 18 -1 13
-9 24 -18 26 -13 3 -17 -4 -16 -30z"/>
<path d="M5200 2016 c0 -14 5 -28 12 -32 7 -5 9 -2 5 9 -3 9 -1 18 6 21 9 3 8
5 -1 5 -7 1 -10 6 -7 11 3 6 1 10 -4 10 -6 0 -11 -11 -11 -24z"/>
<path d="M4750 2010 c0 -5 5 -10 10 -10 6 0 10 5 10 10 0 6 -4 10 -10 10 -5 0
-10 -4 -10 -10z"/>
<path d="M4350 1930 c0 -23 -25 -27 -34 -5 -3 8 -16 15 -29 15 -22 0 -24 -3
-18 -32 6 -27 13 -34 41 -39 25 -6 40 -3 52 8 16 14 18 13 28 -13 5 -16 14
-36 18 -44 5 -9 3 -25 -4 -38 -16 -31 -4 -74 24 -87 12 -5 22 -17 22 -25 0
-21 20 -40 41 -40 23 0 40 23 42 57 2 23 7 28 27 28 23 0 37 19 15 20 -21 2
-45 17 -39 26 3 5 -2 9 -10 9 -9 0 -16 7 -16 16 0 22 -26 45 -44 38 -18 -7
-44 16 -39 33 5 15 -25 88 -33 80 -4 -4 -15 -2 -25 4 -16 8 -19 6 -19 -11z"/>
<path d="M3823 1891 c33 -21 55 -41 50 -43 -4 -3 -2 -3 5 -1 7 1 32 -7 54 -18
53 -27 120 -51 126 -44 3 3 -21 16 -54 31 -99 44 -127 57 -177 86 -69 41 -72
34 -4 -11z"/>
<path d="M4146 1838 c3 -4 -2 -8 -10 -8 -9 0 -16 -4 -16 -9 0 -5 -3 -16 -6
-24 -4 -11 2 -14 21 -11 20 2 25 -1 21 -12 -9 -23 19 -16 44 11 l24 25 -24 17
c-25 18 -63 26 -54 11z"/>
<path d="M4315 1840 c4 -6 -5 -10 -19 -10 -14 0 -26 -4 -26 -10 0 -5 7 -7 15
-4 27 11 16 -18 -20 -52 -34 -31 -34 -33 -12 -37 16 -3 13 -5 -10 -6 -34 -1
-44 -15 -19 -24 8 -3 38 -3 68 0 l53 5 2 74 c3 69 2 74 -18 74 -11 0 -17 -4
-14 -10z"/>
<path d="M3833 1783 c-13 -2 -23 -9 -23 -14 0 -14 26 -11 40 6 7 8 11 14 9 14
-2 -1 -14 -4 -26 -6z"/>
<path d="M4569 1764 c-11 -14 -10 -16 9 -12 13 1 23 7 23 13 1 17 -17 16 -32
-1z"/>
<path d="M3895 1758 c-33 -12 -58 -29 -51 -35 5 -5 86 35 86 42 0 3 -1 5 -2 4
-2 0 -16 -5 -33 -11z"/>
<path d="M3964 1753 c6 -15 -45 -42 -89 -45 -14 -1 -25 -6 -25 -10 0 -10 -5
-10 60 7 109 29 120 11 15 -25 -33 -11 -49 -18 -35 -15 14 3 51 5 83 5 36 0
56 4 52 10 -3 6 1 7 9 4 18 -7 21 -20 6 -29 -5 -3 -10 -11 -10 -18 0 -6 15 3
33 21 36 35 50 41 41 17 -4 -8 -2 -15 4 -15 8 0 22 22 22 36 0 9 -47 3 -58 -8
-9 -9 -15 -9 -24 0 -9 9 -8 12 5 12 14 0 16 6 11 28 -4 15 -7 28 -8 28 -1 1
-23 4 -49 7 -39 4 -47 2 -43 -10z"/>
<path d="M4360 1725 c7 -9 15 -13 17 -11 7 7 -7 26 -19 26 -6 0 -6 -6 2 -15z"/>
<path d="M4145 1720 c-3 -5 -1 -10 4 -10 6 0 11 5 11 10 0 6 -2 10 -4 10 -3 0
-8 -4 -11 -10z"/>
<path d="M4170 1680 c-13 -8 -13 -10 2 -10 9 0 20 5 23 10 8 13 -5 13 -25 0z"/>
<path d="M4325 1658 c-22 -12 -51 -20 -65 -20 -20 0 -29 -7 -40 -31 -20 -46
-20 -67 2 -89 26 -26 52 -19 56 15 4 32 18 34 47 7 21 -20 22 -20 38 -2 14 15
15 21 3 44 -14 26 -14 27 11 17 45 -17 64 -3 21 16 -32 14 -30 41 2 37 24 -3
24 -2 5 12 -25 19 -31 19 -80 -6z m-84 -108 c-3 -3 -9 -9 -13 -14 -5 -5 -8 3
-8 18 0 22 2 25 14 14 8 -7 11 -15 7 -18z m102 2 c-18 -5 -27 3 -18 17 4 7 10
7 20 -2 11 -10 11 -13 -2 -15z"/>
<path d="M4160 1652 c0 -7 -7 -12 -15 -12 -8 0 -15 -4 -15 -10 0 -5 4 -10 9
-10 13 0 35 29 27 37 -3 3 -6 1 -6 -5z"/>
<path d="M4512 1488 c-7 -7 -12 -18 -12 -25 0 -15 36 -18 45 -3 9 15 45 12 45
-3 0 -7 -20 -30 -45 -50 -72 -61 -66 -67 67 -71 14 -1 24 6 26 17 3 14 -4 17
-35 17 l-38 0 33 31 c55 51 39 99 -33 99 -23 0 -46 -5 -53 -12z"/>
<path d="M4676 1485 c-32 -32 -32 -108 0 -140 21 -21 77 -19 97 3 25 27 23
106 -3 132 -24 24 -72 26 -94 5z m69 -49 c9 -45 -2 -78 -23 -74 -17 3 -29 65
-18 94 10 27 35 15 41 -20z"/>
<path d="M4830 1480 c-25 -25 -27 -95 -4 -128 18 -26 69 -30 100 -8 30 22 27
111 -5 137 -30 25 -66 24 -91 -1z m68 -63 c2 -37 -1 -49 -13 -54 -21 -8 -35
13 -35 53 0 31 17 57 35 51 5 -2 11 -25 13 -50z"/>
<path d="M5202 1423 c3 -72 5 -78 26 -81 21 -3 22 -1 22 77 0 80 0 81 -25 81
-26 0 -26 0 -23 -77z"/>
<path d="M5116 1451 c-3 -5 -37 -7 -76 -5 l-70 4 0 -60 c0 -53 2 -60 20 -60
16 0 20 7 20 33 0 17 4 38 9 46 15 23 31 2 31 -40 0 -36 2 -40 23 -37 18 2 23
10 25 46 2 28 8 42 18 42 10 0 14 -12 14 -40 0 -36 3 -40 25 -40 23 0 25 4 25
44 0 27 -6 51 -16 60 -17 18 -40 21 -48 7z"/>
<path d="M3687 1373 c-12 -11 -7 -86 7 -126 37 -104 122 -168 254 -191 18 -3
32 -1 32 4 0 6 -10 10 -22 10 -19 0 -20 2 -8 10 11 7 11 10 2 10 -7 0 -10 5
-6 11 5 9 -2 10 -22 6 -26 -6 -27 -5 -7 4 21 11 21 12 -14 50 -20 22 -42 39
-50 39 -7 0 -13 7 -13 16 0 8 -4 13 -8 10 -5 -3 -15 5 -23 16 -8 12 -22 28
-31 37 -10 8 -18 21 -18 27 0 6 -9 14 -20 17 -11 3 -24 17 -30 31 -10 28 -13
30 -23 19z"/>
<path d="M4130 1292 c0 -18 5 -32 10 -32 6 0 8 11 4 28 -10 39 -14 40 -14 4z"/>
<path d="M4160 1290 c0 -16 3 -30 8 -30 4 0 7 14 7 30 0 17 -3 30 -7 30 -5 0
-8 -13 -8 -30z"/>
<path d="M4192 1290 c0 -19 2 -27 5 -17 2 9 2 25 0 35 -3 9 -5 1 -5 -18z"/>
<path d="M5530 1309 c0 -5 5 -7 10 -4 6 4 11 -6 11 -22 l1 -28 8 30 c6 23 8
25 9 8 1 -27 10 -33 36 -22 11 4 14 8 8 8 -7 1 -13 10 -13 21 0 16 -7 20 -35
20 -19 0 -35 -5 -35 -11z m57 -21 c-3 -8 -6 -5 -6 6 -1 11 2 17 5 13 3 -3 4
-12 1 -19z"/>
<path d="M4210 1284 c0 -14 4 -23 10 -19 6 3 10 15 10 26 0 10 -4 19 -10 19
-5 0 -10 -12 -10 -26z"/>
<path d="M4258 1286 c-4 -18 -1 -26 8 -26 16 0 18 18 5 38 -6 10 -10 7 -13
-12z"/>
<path d="M4288 1280 c2 -16 5 -30 7 -30 2 0 5 14 7 30 3 19 0 30 -7 30 -7 0
-10 -11 -7 -30z"/>
<path d="M4322 1290 c0 -14 2 -19 5 -12 2 6 2 18 0 25 -3 6 -5 1 -5 -13z"/>
<path d="M5366 1303 c-3 -3 -6 -17 -6 -30 0 -22 2 -23 15 -9 8 8 15 19 15 25
0 13 -15 22 -24 14z"/>
<path d="M5400 1300 c0 -5 5 -10 10 -10 6 0 10 5 10 10 0 6 -4 10 -10 10 -5 0
-10 -4 -10 -10z"/>
<path d="M5434 1295 c-8 -20 3 -48 16 -40 13 8 13 55 0 55 -6 0 -13 -7 -16
-15z m13 -27 c-3 -7 -5 -2 -5 12 0 14 2 19 5 13 2 -7 2 -19 0 -25z"/>
<path d="M5470 1278 c0 -30 1 -31 16 -16 9 9 14 24 11 32 -11 27 -27 17 -27
-16z m17 0 c-3 -8 -6 -5 -6 6 -1 11 2 17 5 13 3 -3 4 -12 1 -19z"/>
<path d="M4351 1290 c-1 -18 16 -46 23 -40 2 3 -2 16 -9 30 -8 15 -14 19 -14
10z"/>
<path d="M4390 1275 c0 -14 2 -25 4 -25 2 0 6 11 8 25 3 14 1 25 -3 25 -5 0
-9 -11 -9 -25z"/>
<path d="M4421 1293 c0 -6 -4 -20 -8 -30 -3 -10 -3 -15 2 -11 4 4 15 2 24 -5
14 -10 14 -10 5 3 -7 8 -14 24 -17 35 -2 11 -5 15 -6 8z"/>
<path d="M4451 1285 c0 -11 4 -27 9 -35 7 -12 11 -10 18 10 11 28 5 42 -8 21
-6 -11 -9 -10 -13 5 -4 18 -5 18 -6 -1z"/>
<path d="M4503 1265 c0 -22 2 -30 4 -17 2 12 2 30 0 40 -3 9 -5 -1 -4 -23z"/>
<path d="M5270 1275 c0 -14 5 -25 10 -25 6 0 10 11 10 25 0 14 -4 25 -10 25
-5 0 -10 -11 -10 -25z"/>
<path d="M5313 1285 c-3 -9 -3 -19 1 -22 3 -4 6 2 6 13 0 16 2 17 10 4 8 -13
10 -12 10 3 0 21 -18 23 -27 2z"/>
<path d="M4530 1273 c0 -12 5 -25 11 -28 19 -12 22 3 5 27 l-16 22 0 -21z"/>
<path d="M4570 1265 c0 -14 2 -25 4 -25 2 0 6 11 8 25 3 14 1 25 -3 25 -5 0
-9 -11 -9 -25z"/>
<path d="M4640 1280 c0 -6 5 -8 10 -5 6 3 10 -4 10 -17 0 -18 -2 -20 -10 -8
-8 13 -10 12 -10 -3 0 -11 6 -17 13 -14 6 2 12 14 12 27 0 13 -6 25 -12 28 -7
2 -13 -1 -13 -8z"/>
<path d="M4690 1262 c0 -23 4 -27 31 -28 27 -2 30 1 27 24 -2 19 -10 26 -30
28 -24 2 -28 -1 -28 -24z m28 -13 c-3 -8 -7 -3 -11 10 -4 17 -3 21 5 13 5 -5
8 -16 6 -23z m19 -1 c-3 -7 -5 -2 -5 12 0 14 2 19 5 13 2 -7 2 -19 0 -25z"/>
<path d="M4760 1280 c0 -5 5 -10 10 -10 6 0 10 5 10 10 0 6 -4 10 -10 10 -5 0
-10 -4 -10 -10z"/>
<path d="M4862 1278 c-7 -7 -12 -16 -12 -21 0 -5 7 -1 16 8 9 9 14 18 12 20
-2 3 -10 -1 -16 -7z"/>
<path d="M4908 1264 c-3 -21 0 -31 9 -31 14 0 15 12 4 42 -7 17 -9 16 -13 -11z"/>
<path d="M4980 1280 c0 -5 5 -10 10 -10 6 0 10 5 10 10 0 6 -4 10 -10 10 -5 0
-10 -4 -10 -10z"/>
<path d="M5010 1260 c0 -16 3 -30 8 -30 4 0 7 14 7 30 0 17 -3 30 -7 30 -5 0
-8 -13 -8 -30z"/>
<path d="M5049 1288 c-6 -11 -3 -58 3 -58 4 0 6 13 5 30 -2 27 -4 35 -8 28z"/>
<path d="M5080 1260 c0 -21 4 -30 13 -27 6 2 12 14 12 27 0 13 -6 25 -12 28
-9 2 -13 -7 -13 -28z m17 -12 c-3 -7 -5 -2 -5 12 0 14 2 19 5 13 2 -7 2 -19 0
-25z"/>
<path d="M5120 1260 c0 -16 3 -30 8 -30 4 0 7 14 7 30 1 17 -3 30 -7 30 -4 0
-8 -13 -8 -30z"/>
<path d="M5161 1278 c-2 -24 10 -49 20 -42 5 3 9 10 9 15 0 6 -4 8 -9 4 -5 -3
-12 5 -14 17 -2 14 -5 16 -6 6z"/>
<path d="M5204 1261 c1 -16 4 -27 8 -25 9 6 6 54 -3 54 -3 0 -6 -13 -5 -29z"/>
<path d="M4791 1257 c-1 -19 3 -27 12 -25 6 3 12 13 13 24 1 17 1 17 -4 -1 -5
-18 -6 -18 -13 5 l-7 25 -1 -28z"/>
<path d="M4832 1255 c0 -16 2 -22 5 -12 2 9 2 23 0 30 -3 6 -5 -1 -5 -18z"/>
<path d="M4940 1270 c0 -6 7 -18 15 -26 9 -10 15 -11 15 -4 0 6 -7 18 -15 26
-9 10 -15 11 -15 4z"/>
<path d="M5400 1264 c0 -8 5 -12 10 -9 6 3 10 10 10 16 0 5 -4 9 -10 9 -5 0
-10 -7 -10 -16z"/>
<path d="M4600 1250 c0 -11 4 -20 9 -20 5 0 7 9 4 20 -3 11 -7 20 -9 20 -2 0
-4 -9 -4 -20z"/>
<path d="M5230 1252 c0 -5 7 -9 15 -9 8 0 15 4 15 9 0 4 -7 8 -15 8 -8 0 -15
-4 -15 -8z"/>
<path d="M5325 1250 c-3 -5 -1 -10 4 -10 6 0 11 5 11 10 0 6 -2 10 -4 10 -3 0
-8 -4 -11 -10z"/>
</g>
</svg>
