<?xml version="1.0" standalone="no"?>
<!DOCTYPE svg PUBLIC "-//W3C//DTD SVG 20010904//EN"
 "http://www.w3.org/TR/2001/REC-SVG-20010904/DTD/svg10.dtd">
<svg version="1.0" xmlns="http://www.w3.org/2000/svg"
 width="292" height="166" viewBox="0 0 640.000000 640.000000"
 preserveAspectRatio="xMidYMid meet">

<g transform="translate(0.000000,640.000000) scale(0.100000,-0.100000)"
fill="rgb(255,200,0)" stroke="none">
<path d="M3075 6210 c-92 -10 -174 -32 -218 -58 -51 -32 -80 -106 -71 -179 5
-41 4 -54 -5 -49 -21 14 -11 -23 11 -38 27 -19 74 -21 111 -3 30 13 37 47 10
48 -10 0 -4 5 12 10 54 18 360 25 479 12 61 -7 112 -12 114 -13 2 0 1 -9 -3
-19 -9 -30 42 -61 100 -61 43 0 48 3 58 30 6 17 15 30 19 30 12 0 -1 72 -26
143 -18 53 -27 65 -67 89 -88 55 -310 79 -524 58z m284 -40 c9 -4 28 -7 44 -5
15 2 27 -1 27 -6 0 -4 6 -6 14 -3 8 3 16 -4 20 -18 10 -39 7 -66 -9 -71 -17
-7 -27 5 -20 25 5 16 -14 42 -38 51 -17 6 -17 5 -2 -15 9 -13 15 -44 15 -75 0
-51 -1 -52 -34 -58 -48 -10 -80 -3 -84 18 -6 30 16 47 45 36 31 -12 43 -4 43
26 0 29 -18 42 -26 20 -4 -10 -13 -14 -23 -10 -51 21 -55 17 -51 -53 1 -27 -2
-33 -17 -31 -10 1 -30 -1 -46 -6 -15 -4 -48 -4 -72 0 l-45 6 1 55 c2 61 -2 70
-28 59 -10 -4 -27 -8 -38 -9 -14 -1 -20 -8 -20 -25 0 -23 11 -34 48 -45 9 -3
17 -15 17 -26 0 -17 -6 -20 -50 -20 -45 0 -50 2 -56 25 -3 14 -3 40 0 58 13
65 12 72 -13 75 l-23 4 27 14 c32 16 38 17 30 5 -3 -6 9 -5 27 1 78 25 289 24
337 -2z m148 -56 c10 -10 16 -35 17 -72 1 -56 1 -57 -29 -60 -24 -2 -32 3 -42
23 -9 20 -8 25 2 25 25 0 46 30 35 50 -11 20 -13 50 -4 50 3 0 12 -7 21 -16z
m-607 -51 c0 -10 11 -26 25 -38 30 -24 21 -45 -21 -48 -25 -2 -29 2 -32 27 -4
36 5 76 18 76 6 0 10 -8 10 -17z m719 -11 c6 -10 7 -28 4 -40 -6 -26 12 -29
26 -5 13 24 19 16 27 -35 5 -35 4 -42 -10 -42 -9 0 -21 12 -27 28 -7 15 -13
22 -16 15 -7 -20 -41 -15 -54 8 -8 15 -8 24 0 32 6 6 11 21 11 34 0 28 25 31
39 5z m-785 -41 c23 -25 17 -55 -12 -59 -20 -3 -22 1 -22 37 0 45 8 51 34 22z"/>
<path d="M3240 6120 c0 -5 -6 -7 -14 -4 -9 4 -16 -2 -18 -17 -3 -22 -3 -22
-22 -4 -18 18 -19 18 -32 0 -18 -25 -19 -62 -1 -47 8 7 23 6 48 -2 37 -13 37
-13 42 18 3 17 8 39 12 49 4 10 3 17 -4 17 -6 0 -11 -4 -11 -10z"/>
<path d="M3655 5840 c3 -5 8 -10 11 -10 2 0 4 5 4 10 0 6 -5 10 -11 10 -5 0
-7 -4 -4 -10z"/>
<path d="M3030 5823 c-30 -8 -58 -17 -62 -21 -4 -4 1 -22 13 -40 19 -33 21
-33 72 -27 103 12 134 13 241 4 71 -6 113 -6 121 1 8 6 16 6 25 -3 10 -10 12
-9 7 6 -5 12 -1 17 13 17 11 0 20 7 20 15 0 8 0 18 1 22 1 13 -73 31 -114 28
-56 -4 -55 -4 -33 -20 15 -11 17 -18 8 -27 -8 -8 -15 -8 -26 2 -13 10 -17 9
-22 -3 -3 -9 -14 -15 -25 -14 -25 2 -24 13 1 20 14 3 20 14 20 31 l0 27 -103
-2 c-56 -1 -127 -8 -157 -16z m114 -44 c-8 -14 -34 -10 -34 5 0 9 7 12 20 9
11 -3 17 -9 14 -14z m86 12 c0 -11 -26 -22 -34 -14 -12 12 -5 23 14 23 11 0
20 -4 20 -9z"/>
<path d="M2785 5781 c-3 -11 1 -36 10 -57 14 -34 16 -36 33 -21 9 8 29 19 45
22 15 4 27 9 27 12 0 13 -29 30 -50 29 -16 -1 -25 5 -25 14 0 23 -32 24 -40 1z"/>
<path d="M3623 5778 c2 -20 -2 -23 -28 -21 -24 2 -31 -2 -32 -17 -1 -13 6 -22
22 -26 13 -3 30 -12 36 -20 10 -13 14 -12 30 2 26 23 25 80 0 94 -28 14 -31
13 -28 -12z"/>
<path d="M2871 5707 c-26 -9 -37 -21 -47 -49 -15 -44 -6 -53 32 -33 31 16 89
21 80 6 -3 -5 7 -11 22 -14 48 -9 97 -19 106 -20 5 -1 10 3 13 9 2 6 -22 18
-56 28 -58 16 -71 28 -71 67 0 22 -27 24 -79 6z m24 -17 c3 -5 1 -10 -4 -10
-6 0 -11 5 -11 10 0 6 2 10 4 10 3 0 8 -4 11 -10z"/>
<path d="M3496 5685 c-4 -14 -16 -35 -27 -46 -17 -17 -23 -18 -35 -8 -9 7 -13
21 -11 31 3 10 2 18 -3 18 -11 0 -20 -28 -14 -44 4 -9 -7 -15 -37 -20 -51 -8
-48 -12 17 -24 41 -7 58 -5 85 7 19 9 34 22 34 29 0 15 5 15 55 7 33 -5 40
-11 45 -36 9 -40 22 -36 27 9 7 54 1 67 -41 85 -56 25 -88 22 -95 -8z"/>
<path d="M3245 5670 l-30 -8 27 -1 c15 0 30 4 33 9 3 6 5 9 3 9 -2 -1 -16 -5
-33 -9z"/>
<path d="M3220 5610 c0 -5 5 -10 10 -10 6 0 10 5 10 10 0 6 -4 10 -10 10 -5 0
-10 -4 -10 -10z"/>
<path d="M2875 5600 c-3 -5 -1 -10 4 -10 6 0 11 5 11 10 0 6 -2 10 -4 10 -3 0
-8 -4 -11 -10z"/>
<path d="M2827 5593 c-10 -10 -8 -33 3 -33 5 0 14 9 20 20 8 15 8 20 -3 20 -8
0 -17 -3 -20 -7z"/>
<path d="M2837 5407 c-12 -10 -18 -62 -31 -277 -9 -146 -16 -300 -16 -342 0
-63 -3 -78 -15 -78 -17 0 -20 -26 -4 -36 7 -4 10 -54 9 -148 -1 -77 -1 -145 0
-151 1 -5 1 -22 0 -37 -1 -16 3 -28 7 -28 5 0 14 55 20 123 5 67 13 132 16
145 13 51 20 67 31 74 16 11 64 10 71 -2 8 -13 38 -13 52 1 26 26 -22 79 -55
60 -21 -12 -52 4 -53 27 0 14 -2 13 -8 -3 -5 -12 -4 -23 3 -27 6 -5 2 -8 -11
-8 -20 0 -22 3 -16 33 4 17 7 42 8 53 0 13 5 20 12 17 10 -4 9 4 -2 31 -19 44
-19 56 0 56 11 0 12 5 5 25 -7 19 -6 25 4 25 7 0 20 8 27 17 12 15 12 16 -3
10 -13 -4 -18 2 -23 33 -4 23 -2 46 5 57 9 15 10 14 7 -12 -2 -16 -2 -24 0
-17 3 6 8 12 13 12 4 0 2 21 -6 46 -12 40 -12 45 1 34 7 -6 11 -19 8 -28 -3
-9 -2 -13 2 -9 5 4 10 60 11 125 1 84 6 128 18 156 9 21 16 42 16 46 0 12 -86
10 -103 -3z"/>
<path d="M3574 5378 c11 -56 27 -300 20 -321 -3 -11 -2 -17 2 -14 5 3 9 -55 9
-129 0 -74 3 -134 7 -134 10 0 11 431 1 548 -5 73 -8 82 -26 82 -17 0 -19 -5
-13 -32z"/>
<path d="M3654 5130 c0 -58 1 -81 3 -52 2 28 2 76 0 105 -2 28 -3 5 -3 -53z"/>
<path d="M2960 5155 c-11 -13 -11 -21 -2 -36 11 -16 9 -19 -8 -19 -23 0 -28
-38 -8 -58 9 -9 7 -13 -5 -18 -18 -7 -24 -44 -7 -44 6 0 10 -11 10 -25 0 -14
-5 -25 -10 -25 -6 0 -5 -8 2 -20 7 -11 19 -20 26 -20 8 0 28 -16 45 -36 36
-40 84 -72 125 -83 23 -7 27 -13 27 -47 1 -21 4 -53 8 -71 7 -27 5 -34 -17
-49 -15 -9 -66 -22 -114 -29 -133 -19 -77 -27 124 -18 l179 8 -43 26 c-48 29
-82 76 -82 113 0 26 23 50 72 74 33 17 44 42 21 50 -7 2 -13 -3 -13 -12 0 -9
-8 -16 -20 -16 -11 0 -20 2 -20 5 0 10 55 54 68 55 12 0 18 30 6 30 -3 0 -20
-12 -37 -26 -19 -16 -33 -22 -35 -15 -7 21 7 41 28 41 20 0 26 11 13 23 -3 4
-12 2 -20 -5 -9 -7 -17 -8 -24 -1 -13 13 -1 41 22 48 20 7 25 20 10 30 -6 3
-14 -3 -20 -12 -13 -25 -33 -4 -35 35 -1 17 -4 28 -8 25 -5 -2 -15 0 -24 5
-11 6 -13 11 -5 16 24 15 9 24 -21 14 -50 -17 -78 -38 -78 -59 0 -21 15 -25
24 -6 4 6 4 2 2 -11 -4 -19 5 -29 45 -55 45 -29 49 -35 47 -67 -4 -52 -33 -48
-33 4 0 34 -3 39 -23 41 -13 1 -28 8 -33 16 -7 11 -9 11 -9 -3 0 -10 -7 -18
-15 -18 -19 0 -19 9 1 31 18 20 11 41 -11 32 -12 -4 -15 3 -15 31 0 24 5 36
14 36 8 0 17 7 20 16 9 22 8 24 -10 17 -12 -4 -14 0 -9 19 5 18 2 27 -9 31 -9
4 -13 13 -10 22 5 12 0 15 -26 13 -17 -1 -34 -6 -37 -11 -3 -4 -10 -1 -17 8
-11 16 -13 16 -26 0z m100 -37 c0 -7 3 -24 6 -38 l7 -25 -28 26 c-27 27 -27
49 1 49 8 0 14 -6 14 -12z m-53 -4 c-3 -3 -12 -4 -19 -1 -8 3 -5 6 6 6 11 1
17 -2 13 -5z m45 -86 c-7 -7 -12 -8 -12 -2 0 6 3 14 7 17 3 4 9 5 12 2 2 -3
-1 -11 -7 -17z m156 -45 c12 -41 8 -55 -13 -47 -10 4 -13 14 -9 30 5 18 2 24
-10 24 -9 0 -16 -6 -16 -12 -1 -8 -7 -5 -15 6 -12 16 -12 22 2 42 14 22 17 23
33 9 9 -8 22 -32 28 -52z m-228 16 c0 -5 -4 -9 -10 -9 -5 0 -10 7 -10 16 0 8
5 12 10 9 6 -3 10 -10 10 -16z m35 1 c3 -5 1 -10 -4 -10 -6 0 -11 5 -11 10 0
6 2 10 4 10 3 0 8 -4 11 -10z m41 -25 c11 -27 -2 -37 -14 -11 -7 16 -8 26 -1
26 5 0 12 -7 15 -15z m-1 -61 c9 -4 14 -16 13 -32 -2 -20 2 -27 22 -32 l25 -6
-23 -8 c-35 -12 -73 27 -65 65 4 22 2 29 -11 29 -19 0 -22 16 -3 23 6 2 15 -4
19 -15 4 -10 14 -21 23 -24z m-78 4 c-3 -8 -6 -5 -6 6 -1 11 2 17 5 13 3 -3 4
-12 1 -19z m176 -48 c6 -25 -14 -26 -36 -2 -15 16 -15 18 7 20 16 1 25 -5 29
-18z m2 -68 c-7 -8 -35 7 -35 18 0 6 7 6 20 -2 10 -7 17 -14 15 -16z m42 -119
c-3 -10 -5 -4 -5 12 0 17 2 24 5 18 2 -7 2 -21 0 -30z"/>
<path d="M3160 5145 c0 -8 5 -15 10 -15 6 0 10 7 10 15 0 8 -4 15 -10 15 -5 0
-10 -7 -10 -15z"/>
<path d="M3230 5145 c0 -8 5 -15 10 -15 6 0 10 7 10 15 0 8 -4 15 -10 15 -5 0
-10 -7 -10 -15z"/>
<path d="M3360 5150 c0 -5 5 -10 11 -10 5 0 7 5 4 10 -3 6 -8 10 -11 10 -2 0
-4 -4 -4 -10z"/>
<path d="M3400 5130 c0 -5 5 -10 10 -10 6 0 10 5 10 10 0 6 -4 10 -10 10 -5 0
-10 -4 -10 -10z"/>
<path d="M3440 5130 c0 -5 5 -10 10 -10 6 0 10 5 10 10 0 6 -4 10 -10 10 -5 0
-10 -4 -10 -10z"/>
<path d="M3112 5102 c4 -21 52 -26 69 -6 6 8 10 14 8 15 -61 9 -80 7 -77 -9z"/>
<path d="M3285 5107 c-4 -10 -5 -21 -1 -24 10 -10 18 4 13 24 -4 17 -4 17 -12
0z"/>
<path d="M3210 5094 c0 -4 18 -26 40 -50 24 -26 40 -37 40 -28 0 8 -15 31 -34
49 -32 34 -46 42 -46 29z"/>
<path d="M3390 5070 c0 -5 7 -10 16 -10 8 0 12 5 9 10 -3 6 -10 10 -16 10 -5
0 -9 -4 -9 -10z"/>
<path d="M3453 5063 c9 -9 19 -14 23 -11 10 10 -6 28 -24 28 -15 0 -15 -1 1
-17z"/>
<path d="M2910 5045 c0 -8 4 -15 10 -15 5 0 7 7 4 15 -4 8 -8 15 -10 15 -2 0
-4 -7 -4 -15z"/>
<path d="M3325 5050 c3 -5 8 -10 11 -10 2 0 4 5 4 10 0 6 -5 10 -11 10 -5 0
-7 -4 -4 -10z"/>
<path d="M3360 5050 c0 -5 5 -10 10 -10 6 0 10 5 10 10 0 6 -4 10 -10 10 -5 0
-10 -4 -10 -10z"/>
<path d="M3300 5020 c0 -5 5 -10 11 -10 5 0 7 5 4 10 -3 6 -8 10 -11 10 -2 0
-4 -4 -4 -10z"/>
<path d="M3390 5019 c0 -5 5 -7 10 -4 6 3 10 8 10 11 0 2 -4 4 -10 4 -5 0 -10
-5 -10 -11z"/>
<path d="M3465 4997 c-4 -10 -5 -21 -1 -24 10 -10 18 4 13 24 -4 17 -4 17 -12
0z"/>
<path d="M3400 4962 c0 -5 7 -13 16 -16 10 -4 14 -1 12 6 -5 15 -28 23 -28 10z"/>
<path d="M3440 4956 c0 -9 5 -16 10 -16 6 0 10 4 10 9 0 6 -4 13 -10 16 -5 3
-10 -1 -10 -9z"/>
<path d="M3320 4941 c0 -6 5 -13 10 -16 6 -3 10 1 10 9 0 9 -4 16 -10 16 -5 0
-10 -4 -10 -9z"/>
<path d="M2890 4929 c0 -5 5 -7 10 -4 6 3 10 8 10 11 0 2 -4 4 -10 4 -5 0 -10
-5 -10 -11z"/>
<path d="M3450 4914 c0 -8 5 -12 10 -9 6 4 8 11 5 16 -9 14 -15 11 -15 -7z"/>
<path d="M3386 4886 c4 -17 -1 -31 -16 -46 -12 -12 -20 -23 -18 -25 2 -2 21
13 42 35 35 37 36 39 17 49 -29 16 -32 14 -25 -13z"/>
<path d="M3613 4745 c0 -14 3 -25 8 -25 5 0 9 9 9 19 0 11 -4 22 -9 25 -5 3
-8 -6 -8 -19z"/>
<path d="M2931 4744 c0 -11 3 -14 6 -6 3 7 2 16 -1 19 -3 4 -6 -2 -5 -13z"/>
<path d="M3624 4708 c-11 -18 -12 -65 -1 -80 6 -9 7 -7 3 5 -5 14 1 22 24 30
22 8 30 17 28 32 -3 23 -42 33 -54 13z"/>
<path d="M2920 4505 c0 -8 5 -15 10 -15 6 0 10 7 10 15 0 8 -4 15 -10 15 -5 0
-10 -7 -10 -15z"/>
<path d="M3671 4373 c2 -134 0 -156 -19 -194 -11 -24 -24 -57 -28 -72 -4 -18
-16 -32 -32 -38 l-25 -10 21 -19 c11 -11 32 -22 46 -26 14 -3 26 -12 26 -20 0
-7 6 -11 14 -8 8 3 25 -6 38 -19 13 -13 30 -26 36 -28 7 -2 29 -26 50 -53 54
-71 68 -68 26 6 -20 35 -54 98 -76 142 l-40 79 -12 198 c-6 109 -15 201 -19
205 -4 4 -6 -60 -6 -143z"/>
<path d="M2737 4315 c-10 -170 -21 -212 -92 -339 -45 -82 -50 -95 -26 -72 16
15 34 24 43 21 10 -4 23 6 39 29 15 23 32 36 46 36 12 0 35 8 52 18 28 15 31
21 28 61 -2 29 -9 48 -22 58 -22 15 -41 104 -53 248 l-7 80 -8 -140z"/>
<path d="M2913 4336 c5 -12 0 -16 -15 -16 -16 0 -19 -3 -11 -11 5 -5 36 -9 69
-7 53 4 56 5 27 12 -18 5 -31 13 -30 19 1 7 -9 13 -22 15 -18 3 -22 0 -18 -12z"/>
<path d="M3545 4200 c3 -5 8 -10 11 -10 2 0 4 5 4 10 0 6 -5 10 -11 10 -5 0
-7 -4 -4 -10z"/>
<path d="M3290 3061 c-14 -4 -53 -7 -88 -6 -50 2 -62 -1 -58 -11 4 -8 9 -21
12 -29 4 -11 0 -15 -17 -15 -26 0 -16 -15 16 -23 12 -3 4 -5 -17 -6 -20 0 -43
-4 -52 -7 -26 -10 -8 -23 24 -18 30 5 30 5 30 -42 0 -43 2 -46 23 -40 12 3 25
6 29 6 3 0 4 17 1 39 -6 44 2 53 37 38 19 -8 21 -11 9 -14 -14 -3 -15 -9 -6
-34 14 -37 34 -38 33 -1 0 15 3 42 8 61 8 33 7 34 -18 27 -15 -4 -26 -2 -26 4
0 5 6 10 13 10 9 0 9 2 1 8 -9 5 -8 11 2 20 12 11 14 10 14 -4 0 -10 5 -14 15
-10 9 3 15 0 15 -9 0 -8 5 -15 10 -15 6 0 10 4 10 9 0 5 20 9 45 9 45 -1 95
27 78 42 -12 11 -115 19 -143 11z m-80 -51 c0 -11 -7 -20 -15 -20 -18 0 -19
12 -3 28 16 16 18 15 18 -8z"/>
<path d="M3675 3059 c-22 -4 -55 -11 -73 -15 -18 -3 -38 -2 -45 4 -11 9 -94 9
-102 0 -2 -2 0 -10 4 -17 9 -15 39 -16 108 -5 38 5 42 4 45 -17 4 -27 28 -38
29 -12 0 16 1 16 8 -2 5 -11 7 -22 4 -25 -2 -2 -47 -3 -100 -2 -65 2 -93 0
-88 -7 3 -6 24 -11 45 -11 45 0 74 -23 65 -51 -4 -13 -2 -19 9 -19 31 0 46 13
46 40 0 33 19 43 45 23 19 -13 19 -15 3 -24 -24 -14 -23 -46 2 -54 11 -4 36
-1 56 5 19 7 46 10 59 7 15 -2 22 0 18 6 -4 6 2 8 15 5 14 -4 19 -2 16 7 -5
12 45 29 56 18 3 -2 6 -57 7 -121 2 -144 1 -140 13 -122 5 8 7 62 5 119 -3 63
0 110 6 117 5 7 11 43 13 82 l4 70 -27 -13 c-46 -23 -98 -36 -153 -38 -29 -1
-56 -6 -60 -12 -5 -6 -11 -6 -18 1 -7 7 7 17 47 34 32 12 62 27 68 31 11 11
-75 10 -130 -2z m189 -111 c-8 -28 -12 -33 -20 -25 -9 8 6 47 17 47 6 0 7 -10
3 -22z m-248 -45 c-11 -11 -17 4 -9 23 7 18 8 18 11 1 2 -10 1 -21 -2 -24z
m157 10 c-13 -2 -33 -2 -45 0 -13 2 -3 4 22 4 25 0 35 -2 23 -4z"/>
<path d="M3490 2996 c0 -2 7 -6 15 -10 8 -3 15 -1 15 4 0 6 -7 10 -15 10 -8 0
-15 -2 -15 -4z"/>
<path d="M3555 2990 c-3 -5 1 -10 9 -10 9 0 16 5 16 10 0 6 -4 10 -9 10 -6 0
-13 -4 -16 -10z"/>
<path d="M3316 2975 c-17 -13 -15 -14 18 -20 20 -4 33 -11 31 -16 -3 -4 6 -14
20 -22 l26 -13 -28 -13 c-24 -11 -25 -14 -11 -22 11 -6 24 -6 35 0 34 18 103
41 124 41 11 0 17 5 14 10 -3 6 -34 10 -68 10 -47 1 -58 3 -44 11 30 17 19 28
-19 17 -31 -8 -39 -7 -58 11 -18 17 -23 18 -40 6z"/>
<path d="M3286 2925 c-26 -20 -13 -32 29 -27 35 4 35 5 19 23 -20 22 -23 23
-48 4z"/>
<path d="M3006 2902 c-3 -6 -1 -14 5 -17 15 -10 25 3 12 16 -7 7 -13 7 -17 1z"/>
<path d="M3485 2860 c-3 -5 -1 -10 4 -10 6 0 11 5 11 10 0 6 -2 10 -4 10 -3 0
-8 -4 -11 -10z"/>
<path d="M3610 2860 c0 -5 7 -10 16 -10 8 0 12 5 9 10 -3 6 -10 10 -16 10 -5
0 -9 -4 -9 -10z"/>
<path d="M3293 2843 c-18 -6 -16 -33 1 -33 19 0 31 19 20 30 -5 4 -15 5 -21 3z"/>
<path d="M3340 2830 c0 -5 12 -10 26 -10 14 0 23 4 19 10 -3 6 -15 10 -26 10
-10 0 -19 -4 -19 -10z"/>
<path d="M3513 2833 c9 -2 23 -2 30 0 6 3 -1 5 -18 5 -16 0 -22 -2 -12 -5z"/>
<path d="M2760 2813 c0 -7 5 -13 10 -13 6 0 19 -9 29 -19 14 -14 16 -22 8 -31
-9 -8 -8 -14 5 -24 13 -9 14 -16 6 -24 -6 -6 -8 -18 -4 -27 4 -12 10 -14 25
-5 11 5 26 10 33 9 7 0 4 -4 -8 -9 -15 -6 -23 -21 -28 -49 -3 -23 -10 -41 -14
-41 -7 0 -25 37 -37 78 -7 25 -42 27 -37 1 8 -40 56 -149 68 -153 8 -3 21 16
36 55 13 32 31 69 40 81 l17 23 -6 -22 c-3 -13 -10 -23 -17 -23 -6 0 -4 -4 4
-10 10 -6 14 -24 12 -63 -2 -54 -2 -55 29 -61 17 -3 42 -6 55 -6 15 0 24 -6
24 -15 0 -17 -23 -15 -60 5 -22 12 -24 12 -12 -2 10 -13 10 -17 -2 -21 -7 -3
-23 6 -35 21 -11 14 -24 23 -27 19 -4 -4 -2 -13 4 -20 9 -10 8 -17 0 -25 -9
-9 -3 -12 25 -12 36 0 48 -12 26 -25 -14 -9 -6 -30 12 -30 8 0 16 -11 17 -24
2 -13 12 -26 23 -28 10 -3 19 -9 19 -13 0 -5 3 -15 6 -24 3 -9 1 -16 -5 -16
-6 0 -11 7 -11 15 0 8 -10 20 -22 26 -13 7 -26 17 -30 23 -10 15 -14 7 -21
-39 -6 -37 -5 -38 8 -21 19 24 33 12 17 -14 -14 -22 -6 -48 21 -72 14 -13 17
-21 9 -30 -5 -8 -8 -42 -5 -80 2 -42 0 -68 -6 -68 -6 0 -10 15 -9 33 0 17 -5
60 -12 93 l-12 61 -42 -10 c-46 -12 -55 -21 -57 -57 0 -14 -3 -19 -6 -12 -2 6
-11 12 -20 12 -11 0 -10 6 6 29 12 16 21 31 21 34 0 12 -64 16 -78 5 -13 -11
-14 -9 -7 12 4 14 13 32 19 40 10 13 9 13 -6 1 -10 -7 -18 -20 -18 -27 0 -8
-4 -14 -8 -14 -18 0 -21 14 -7 34 21 29 19 34 -14 38 l-30 3 17 36 c30 63 39
70 70 52 21 -12 33 -13 55 -4 36 14 34 24 -10 40 -32 12 -35 15 -20 26 28 20
19 27 -12 10 -17 -8 -37 -25 -45 -37 -9 -12 -16 -20 -17 -18 0 3 -2 15 -3 27
-3 22 -13 41 -18 32 -33 -54 -37 -69 -21 -84 14 -15 14 -20 -2 -58 -30 -72
-33 -81 -41 -112 -7 -29 -7 -30 -13 -6 -4 14 -12 26 -18 28 -18 6 -4 -69 16
-87 10 -9 16 -21 14 -27 -3 -7 0 -20 6 -30 8 -14 10 -8 11 31 0 31 7 61 21 82
11 19 23 34 25 34 2 0 4 -14 4 -31 0 -17 -4 -28 -10 -24 -12 7 -14 -54 -2 -70
4 -6 16 -11 27 -10 15 0 19 6 18 23 -2 15 1 21 8 16 8 -4 9 1 5 17 l-7 24 23
-26 c13 -14 31 -29 41 -32 19 -7 22 -22 6 -32 -5 -4 -20 1 -31 12 -21 18 -21
18 -9 -5 15 -29 -5 -39 -50 -23 -38 13 -49 8 -49 -25 0 -30 -18 -31 -29 -1 -6
14 -8 -1 -5 -48 7 -108 14 -149 27 -157 9 -5 8 -8 -3 -8 -18 0 -42 37 -59 93
-7 20 -19 37 -26 37 -7 0 -16 6 -18 13 -3 7 -6 5 -6 -6 -1 -27 26 -87 41 -88
14 0 64 -97 74 -144 12 -60 44 -145 54 -145 5 0 12 12 17 26 9 26 9 26 51 -28
23 -30 66 -71 95 -91 41 -28 54 -43 52 -60 -1 -12 0 -14 2 -4 6 23 23 22 23
-3 0 -25 17 -26 23 -2 4 16 5 16 6 0 1 -14 9 -17 40 -14 33 3 40 1 45 -18 7
-25 -14 -126 -26 -126 -4 0 -8 4 -8 8 0 5 -18 8 -40 8 -22 -1 -40 -5 -40 -11
0 -5 -5 -4 -12 3 -17 17 -28 15 -28 -7 0 -17 7 -19 50 -17 71 3 108 -17 106
-56 0 -18 5 -33 13 -36 10 -3 13 2 9 21 -3 15 -1 24 3 21 12 -7 1 -121 -13
-144 -22 -35 -99 -53 -207 -48 -86 5 -104 9 -176 44 -44 21 -83 41 -87 42 -22
10 -4 -16 25 -35 86 -58 290 -119 417 -124 79 -4 269 3 243 8 -13 2 -23 9 -23
14 0 5 -18 9 -40 9 -31 0 -38 3 -34 15 4 8 1 15 -5 15 -7 0 -14 -7 -17 -15 -8
-21 -54 -20 -54 1 0 10 6 14 15 10 23 -9 19 46 -5 72 -22 23 -14 27 29 15 23
-6 23 -7 5 -14 -18 -7 -17 -8 4 -10 47 -4 62 -13 62 -41 0 -17 2 -18 15 -8 22
18 19 23 -25 56 -22 16 -40 33 -40 38 0 18 -32 45 -46 39 -8 -3 -14 0 -14 6 0
6 9 11 19 11 26 0 35 27 10 33 -20 5 -27 37 -8 37 8 0 10 12 6 36 -5 30 -1 45
24 80 32 47 38 51 57 32 9 -9 16 -8 29 5 18 15 22 17 43 17 6 0 10 9 10 19 0
11 5 23 10 26 6 3 10 -3 10 -13 0 -11 8 -22 18 -24 15 -4 18 -1 14 18 -2 13
-8 24 -13 24 -5 0 -9 7 -9 16 0 12 5 10 20 -9 11 -14 20 -32 20 -41 0 -9 5
-16 10 -16 13 0 13 3 -2 37 -6 15 -10 34 -9 41 1 8 -13 12 -44 12 -54 0 -61
20 -15 47 30 18 39 33 19 33 -8 0 -8 4 0 14 10 12 9 13 -8 9 -13 -3 -23 2 -31
17 -6 12 -9 24 -6 27 3 4 1 12 -6 20 -8 10 -8 12 3 8 8 -3 18 4 24 17 6 13 21
24 33 26 23 4 24 2 22 -65 -5 -118 -7 -113 49 -113 54 0 81 17 81 52 0 20 -1
20 -18 5 -10 -10 -31 -17 -46 -17 -23 0 -27 4 -24 23 2 14 11 23 26 25 14 2
22 10 22 23 0 15 -6 19 -22 17 -17 -2 -23 2 -23 17 0 17 6 20 35 18 29 -2 36
2 36 18 0 17 -7 19 -58 19 -57 0 -58 1 -47 22 l11 21 -30 -21 c-38 -28 -58
-28 -73 0 -9 17 -9 24 5 33 9 7 16 22 16 34 0 12 13 34 30 48 17 13 30 32 30
41 0 12 -8 8 -30 -13 l-30 -29 0 52 c0 28 5 54 10 57 17 11 2 22 -30 23 -26 1
-30 -2 -25 -16 12 -32 17 -71 11 -88 -5 -14 -9 -13 -30 7 -14 14 -20 26 -15
30 7 4 5 20 -5 44 -20 47 -21 42 15 60 17 9 37 31 44 48 12 27 14 29 15 10 0
-14 6 -23 15 -23 8 0 15 -5 15 -10 0 -18 49 -35 62 -22 9 9 6 12 -12 12 -18 0
-21 3 -11 9 18 12 7 62 -13 55 -19 -7 -40 31 -55 98 -11 50 -10 61 3 80 18 25
21 68 6 68 -5 0 -10 9 -10 21 0 28 -22 20 -38 -15 -12 -24 -11 -34 3 -74 10
-26 19 -69 22 -97 l4 -50 -16 31 c-18 35 -62 61 -77 46 -6 -6 -6 -12 1 -16 6
-4 11 -15 11 -25 0 -22 30 -51 53 -51 25 0 21 -23 -8 -50 -16 -15 -37 -23 -59
-23 -38 0 -70 19 -60 35 4 6 10 4 16 -6 12 -22 23 -20 36 7 l11 22 0 -22 c1
-37 21 -26 21 11 0 42 -16 55 -36 30 -13 -17 -13 -16 -4 10 15 40 -1 54 -35
32 -14 -9 -29 -24 -32 -32 -7 -20 -23 -7 -23 19 0 24 34 52 51 41 7 -4 9 1 5
14 -4 11 -1 31 5 46 14 30 3 50 -12 23 -6 -9 -17 -17 -25 -17 -12 0 -12 4 2
25 11 17 15 37 11 61 -4 25 -2 34 6 31 7 -2 11 -16 9 -30 -2 -15 1 -27 7 -27
6 0 11 10 11 21 0 19 4 21 30 16 27 -6 30 -4 30 21 0 15 4 41 9 59 8 26 7 31
-5 26 -9 -3 -13 -11 -10 -18 3 -9 -8 -15 -32 -18 -42 -5 -57 1 -24 10 l23 6
-28 28 c-15 16 -33 29 -39 29 -7 0 -14 7 -18 15 -10 28 25 16 58 -20 39 -40
51 -43 67 -14 8 16 8 24 -1 33 -8 8 -9 6 -4 -9 6 -19 6 -19 -16 1 l-22 22 21
21 c21 21 21 61 1 69 -4 1 -16 9 -26 17 -28 21 5 20 35 -1 22 -16 23 -16 19
12 -1 16 -7 32 -12 36 -6 4 -6 12 0 20 6 7 10 29 10 48 l-1 35 -135 8 c-74 4
-181 13 -237 20 -85 11 -103 11 -103 0z m185 -143 c3 -5 2 -10 -4 -10 -5 0
-13 5 -16 10 -3 6 -2 10 4 10 5 0 13 -4 16 -10z m102 -52 c-3 -7 -5 -2 -5 12
0 14 2 19 5 13 2 -7 2 -19 0 -25z m66 25 c-7 -2 -21 -2 -30 0 -10 3 -4 5 12 5
17 0 24 -2 18 -5z m-75 -71 c17 -17 19 -23 7 -18 -9 3 -21 6 -26 6 -5 0 -9 7
-9 15 0 10 -10 15 -30 15 -16 0 -30 4 -30 10 0 18 64 -3 88 -28z m142 8 c0 -4
-18 -7 -40 -6 -38 1 -53 10 -28 18 17 6 68 -3 68 -12z m-196 -39 c17 -7 26 -7
30 2 3 9 5 9 5 0 1 -6 -3 -14 -9 -18 -12 -8 -60 5 -60 16 0 11 3 11 34 0z m70
-46 c-4 -8 -8 -15 -10 -15 -2 0 -4 7 -4 15 0 8 4 15 10 15 5 0 7 -7 4 -15z
m56 -29 c0 -2 -7 -6 -15 -10 -8 -3 -15 -1 -15 4 0 6 7 10 15 10 8 0 15 -2 15
-4z m7 -48 c-3 -7 -5 -2 -5 12 0 14 2 19 5 13 2 -7 2 -19 0 -25z m-50 16 c-3
-3 -12 -4 -19 -1 -8 3 -5 6 6 6 11 1 17 -2 13 -5z m150 -29 c0 -8 -2 -15 -4
-15 -3 0 -11 7 -19 15 -14 13 -13 15 4 15 10 0 19 -7 19 -15z m-138 -18 c0 -9
-2 -8 -6 1 -2 6 -10 9 -15 6 -7 -4 -8 -2 -4 5 9 13 26 5 25 -12z m-79 -33 c0
-8 -4 -14 -10 -14 -5 0 -10 9 -10 21 0 11 5 17 10 14 6 -3 10 -13 10 -21z m70
-7 c0 -13 -5 -28 -11 -34 -13 -13 -5 -43 12 -43 8 0 8 4 -1 15 -7 9 -8 15 -2
15 14 0 22 -24 15 -49 l-5 -21 -22 22 c-19 20 -20 29 -12 71 9 49 26 64 26 24z
m-19 -180 c13 -8 19 -23 18 -47 l0 -35 -12 35 c-13 39 -44 49 -39 13 2 -12 -2
-24 -8 -28 -6 -4 -10 4 -10 19 0 14 4 27 9 30 5 3 7 15 4 26 -3 11 -2 28 3 37
6 15 8 13 12 -10 2 -15 12 -33 23 -40z m-131 -56 c0 -5 -12 -23 -26 -40 -16
-19 -24 -39 -21 -51 3 -11 -3 -26 -14 -36 -10 -9 -19 -26 -19 -37 0 -11 -3
-17 -7 -13 -4 4 -6 37 -5 74 2 51 7 72 23 87 17 17 21 18 30 5 9 -13 12 -13
22 3 13 19 17 21 17 8z m221 -82 l44 -41 -41 4 c-30 2 -40 0 -37 -9 3 -7 9
-13 14 -13 5 0 9 -7 9 -17 0 -15 -1 -15 -18 0 -23 21 -36 22 -29 3 3 -8 -1
-22 -8 -33 -8 -10 -15 -13 -15 -6 0 7 -13 28 -30 46 -34 39 -36 47 -15 47 9 0
29 14 45 30 16 17 31 30 33 30 3 0 24 -18 48 -41z m-429 -69 c-2 -65 -17 -120
-33 -120 -9 0 -15 18 -25 73 -6 33 -4 37 15 37 27 0 37 24 22 56 -10 22 -9 25
6 22 15 -3 18 -13 15 -68z m72 35 c18 -12 25 -29 31 -72 4 -31 9 -62 12 -70
10 -25 -16 -13 -42 21 -16 21 -28 52 -32 85 -6 56 -4 59 31 36z m194 -38 c20
-15 14 -29 -8 -17 -11 6 -25 8 -30 5 -12 -8 28 -75 46 -75 17 0 8 -26 -12 -34
-27 -10 -70 115 -48 137 7 6 33 -1 52 -16z m-68 -11 c0 -8 -4 -18 -10 -21 -5
-3 -10 3 -10 14 0 12 5 21 10 21 6 0 10 -6 10 -14z m311 -92 c22 -30 38 -58
35 -61 -3 -4 -6 -1 -6 5 0 9 -5 9 -20 0 -34 -21 -55 1 -58 61 -2 28 -1 51 2
51 3 0 24 -25 47 -56z m-297 11 c7 -27 6 -29 -9 -14 -9 9 -13 23 -9 33 8 21 9
19 18 -19z m-19 -55 c4 -6 15 -10 25 -10 11 0 24 -9 29 -19 10 -17 8 -18 -24
-11 -27 6 -35 5 -35 -7 0 -19 45 -63 65 -63 20 0 20 -29 -1 -37 -9 -3 -21 3
-30 15 -8 12 -20 27 -27 34 -11 11 -27 45 -65 137 -6 16 52 -21 63 -39z m225
30 c0 -11 -4 -20 -9 -20 -5 0 -7 9 -4 20 3 11 7 20 9 20 2 0 4 -9 4 -20z
m-335 -20 c11 -16 26 -30 33 -30 6 0 12 -2 12 -4 0 -2 3 -11 6 -20 4 -11 0
-16 -12 -17 -11 0 -14 -3 -6 -6 23 -9 12 -20 -18 -15 -20 3 -30 10 -30 22 0
10 -9 20 -20 23 -17 4 -20 0 -20 -28 0 -41 -24 -66 -27 -27 0 15 -6 28 -12 30
-6 2 -11 16 -10 30 0 22 2 23 8 9 6 -17 8 -17 25 2 14 15 15 23 6 40 -10 19
-8 21 17 21 20 0 34 -9 48 -30z m286 -11 c19 -17 58 -43 87 -57 65 -31 73 -42
29 -42 -23 0 -37 -6 -41 -16 -11 -28 -6 -34 24 -27 l31 6 -3 -66 c-1 -37 -5
-63 -8 -59 -9 12 -80 12 -80 -1 -1 -30 -22 29 -25 68 -2 36 2 47 21 64 l24 21
-23 37 c-31 48 -43 51 -51 11 l-6 -32 -40 39 -39 38 32 23 c18 12 33 23 33 23
1 1 17 -13 35 -30z m-251 -143 c0 -6 -4 -17 -9 -24 -6 -10 -11 -5 -20 19 -18
51 -14 68 9 40 11 -13 20 -28 20 -35z m-60 -7 c0 -5 -4 -9 -10 -9 -5 0 -10 7
-10 16 0 8 5 12 10 9 6 -3 10 -10 10 -16z m170 -61 c0 -6 -8 -7 -17 -3 -10 3
-22 7 -28 8 -5 1 -14 7 -18 12 -5 6 -6 -5 -3 -22 3 -18 4 -33 2 -33 -16 0 -36
14 -36 26 0 24 23 63 39 67 17 3 61 -36 61 -55z m83 42 c3 -12 0 -20 -7 -20
-18 0 -25 10 -19 26 7 20 20 17 26 -6z m261 -45 c3 -8 1 -15 -4 -15 -6 0 -10
7 -10 15 0 8 2 15 4 15 2 0 6 -7 10 -15z m-269 -55 c24 -16 51 -30 59 -30 9 0
16 -4 16 -10 0 -13 -24 -13 -74 2 -22 6 -42 12 -43 12 -6 3 -14 56 -8 56 3 0
26 -13 50 -30z m271 -7 c2 -26 -11 -23 -18 5 -3 10 0 19 6 19 6 0 12 -11 12
-24z m-31 -34 c4 -6 4 -13 0 -17 -4 -4 -10 -1 -12 6 -4 10 -8 10 -19 1 -8 -6
-14 -7 -14 -2 0 23 33 32 45 12z m25 -64 c0 -5 -5 -3 -10 5 -5 8 -10 20 -10
25 0 6 5 3 10 -5 5 -8 10 -19 10 -25z m57 29 c-3 -3 -12 -4 -19 -1 -8 3 -5 6
6 6 11 1 17 -2 13 -5z m-192 -194 c3 -5 -1 -10 -9 -10 -8 0 -18 5 -21 10 -3 6
1 10 9 10 8 0 18 -4 21 -10z m19 -164 c-3 -8 -13 -12 -27 -8 -20 5 -20 6 -1
13 29 11 34 10 28 -5z"/>
<path d="M2540 2686 c0 -47 5 -88 10 -91 6 -4 10 8 10 30 0 33 2 35 25 29 19
-5 25 -2 25 10 0 8 -11 18 -25 22 -16 4 -25 13 -25 25 0 21 20 25 38 7 9 -9
15 -9 23 -1 9 9 3 17 -22 32 -56 34 -59 30 -59 -63z"/>
<path d="M3818 2718 c-11 -9 -18 -37 -22 -85 -6 -78 0 -87 45 -63 26 15 26 43
-1 35 -24 -8 -29 20 -5 29 8 3 15 12 15 20 0 10 -6 13 -15 10 -26 -10 -17 22
10 34 14 6 25 16 25 22 0 14 -33 13 -52 -2z"/>
<path d="M2640 2633 l0 -79 33 -12 c44 -16 57 -15 57 3 0 8 -14 18 -32 23 -19
5 -34 16 -36 26 -3 15 1 17 27 11 26 -5 30 -4 25 9 -3 9 -17 19 -30 22 -13 3
-24 13 -24 21 0 15 12 15 53 -2 13 -5 17 -2 17 13 0 13 -9 21 -27 25 -16 3
-36 9 -45 12 -16 6 -18 -1 -18 -72z"/>
<path d="M3728 2687 l-38 -9 0 -80 c0 -75 1 -79 20 -74 11 3 29 9 40 12 11 3
20 12 20 20 0 12 -7 14 -31 9 -26 -6 -30 -4 -27 12 2 10 13 19 26 21 12 2 22
10 22 18 0 10 -8 14 -22 12 -35 -5 -34 21 1 28 17 4 34 11 37 16 11 18 -11 25
-48 15z"/>
<path d="M3393 2663 c-65 -3 -73 -6 -73 -24 0 -17 4 -19 35 -13 l35 6 0 -80
c0 -75 1 -80 20 -75 18 5 20 14 20 79 0 73 0 73 30 81 30 8 42 27 18 29 -7 0
-46 -1 -85 -3z"/>
<path d="M3585 2653 c-11 -2 -29 -6 -40 -8 -18 -4 -20 -13 -21 -80 0 -64 2
-75 15 -73 13 3 15 15 14 61 -3 52 -1 58 21 69 14 6 32 8 40 5 21 -8 9 -37
-14 -37 -11 0 -21 -4 -24 -9 -8 -13 49 -71 69 -71 14 0 14 3 -4 29 -18 25 -19
30 -6 41 30 25 12 85 -23 79 -4 -1 -16 -3 -27 -6z"/>
<path d="M3892 2608 c2 -6 10 -14 16 -16 7 -2 10 2 6 12 -7 18 -28 22 -22 4z"/>
<path d="M2876 2565 c4 -8 8 -15 10 -15 2 0 4 7 4 15 0 8 -4 15 -10 15 -5 0
-7 -7 -4 -15z"/>
<path d="M3266 2558 c-31 -17 -18 -34 22 -30 34 4 51 16 52 34 0 10 -55 7 -74
-4z"/>
<path d="M3900 2550 c-8 -5 -12 -12 -9 -15 4 -3 12 1 19 10 14 17 11 19 -10 5z"/>
<path d="M2860 2510 c-13 -8 -12 -10 3 -10 9 0 17 5 17 10 0 12 -1 12 -20 0z"/>
<path d="M2595 2468 c-13 -67 11 -113 35 -68 7 14 7 20 0 20 -5 0 -10 10 -11
23 0 12 -4 31 -9 42 -6 17 -9 14 -15 -17z"/>
<path d="M3893 2459 c-1 -17 2 -27 7 -24 12 7 13 42 3 48 -5 3 -9 -8 -10 -24z"/>
<path d="M3786 2451 c-3 -17 -9 -44 -12 -60 -6 -35 11 -50 25 -22 13 24 14 81
2 100 -6 10 -10 5 -15 -18z"/>
<path d="M3700 2396 c0 -20 -4 -36 -10 -36 -6 0 -5 -10 2 -25 11 -24 11 -25
25 -5 9 13 12 32 7 55 -9 48 -24 54 -24 11z"/>
<path d="M3601 2384 c-31 -13 -33 -15 -17 -27 15 -11 24 -11 51 2 24 12 30 19
23 29 -13 15 -15 15 -57 -4z"/>
<path d="M2893 2363 c-7 -2 -13 -21 -13 -40 l0 -36 -21 27 c-11 14 -26 26 -32
26 -18 0 -9 -100 9 -107 8 -3 14 -14 14 -25 0 -34 18 -9 36 50 15 52 27 113
21 111 -1 0 -8 -3 -14 -6z"/>
<path d="M2550 2313 c0 -50 13 -71 33 -55 8 7 21 10 30 6 10 -3 20 2 26 15 19
35 14 51 -19 51 -20 0 -30 -5 -30 -15 0 -8 -4 -15 -10 -15 -5 0 -10 11 -10 25
0 14 -4 25 -10 25 -5 0 -10 -17 -10 -37z"/>
<path d="M3812 2304 c-7 -8 -27 -14 -43 -14 -24 0 -30 -4 -25 -16 3 -9 6 -20
6 -25 0 -5 11 -9 25 -9 14 0 25 -4 25 -10 0 -16 27 -11 34 6 8 22 8 72 -1 77
-5 3 -14 -1 -21 -9z"/>
<path d="M3180 2303 c0 -4 5 -15 10 -23 8 -13 10 -13 10 2 0 9 -4 20 -10 23
-5 3 -10 3 -10 -2z"/>
<path d="M3670 2221 c0 -10 7 -24 15 -31 22 -18 19 -73 -4 -87 -19 -12 -19
-53 0 -53 9 0 30 35 28 47 -1 4 -1 23 0 42 1 29 3 32 16 21 8 -7 15 -29 15
-48 0 -36 0 -36 19 -17 11 11 22 38 25 60 5 35 4 38 -8 23 -19 -25 -26 -22
-26 10 0 21 -7 32 -25 40 -37 17 -55 15 -55 -7z"/>
<path d="M3400 2186 c0 -8 4 -17 9 -20 5 -4 7 3 4 14 -6 23 -13 26 -13 6z"/>
<path d="M3883 2160 c0 -25 2 -35 4 -22 2 12 2 32 0 45 -2 12 -4 2 -4 -23z"/>
<path d="M2540 2143 c0 -21 7 -47 15 -57 14 -18 15 -17 15 23 0 24 -6 49 -15
57 -13 14 -15 11 -15 -23z"/>
<path d="M3629 2153 c-5 -16 -12 -34 -14 -40 -2 -7 2 -13 10 -13 8 0 15 7 15
15 0 18 17 20 23 3 2 -7 7 -10 11 -7 8 8 -14 69 -25 69 -5 0 -14 -12 -20 -27z"/>
<path d="M3571 2123 l1 -38 13 30 c13 30 11 45 -6 45 -5 0 -9 -17 -8 -37z"/>
<path d="M3840 2144 c0 -14 -2 -16 -9 -6 -12 20 -21 -9 -21 -66 1 -41 2 -45
14 -29 14 18 30 106 21 115 -3 3 -5 -3 -5 -14z"/>
<path d="M3480 2111 c0 -45 11 -51 48 -25 35 24 26 58 -15 62 -32 3 -33 2 -33
-37z m50 10 c0 -5 -7 -14 -15 -21 -13 -10 -15 -9 -15 9 0 12 6 21 15 21 8 0
15 -4 15 -9z"/>
<path d="M3370 2133 c0 -10 52 -63 62 -63 4 0 8 17 7 38 -1 30 -2 32 -8 14
l-6 -24 -19 21 c-19 21 -36 27 -36 14z"/>
<path d="M3881 2094 c0 -11 3 -14 6 -6 3 7 2 16 -1 19 -3 4 -6 -2 -5 -13z"/>
<path d="M2591 2057 c-15 -28 -19 -82 -7 -94 15 -15 27 17 24 67 -3 53 -3 53
-17 27z"/>
<path d="M3569 2001 c-45 -49 -60 -108 -35 -146 9 -14 23 -25 30 -25 8 0 16
-5 18 -10 5 -16 75 16 88 41 16 29 8 33 -27 13 -36 -21 -60 -14 -73 22 -17 44
34 109 78 99 18 -5 22 -1 22 20 0 21 -4 25 -32 25 -23 0 -40 -10 -69 -39z"/>
<path d="M3742 2006 c-2 -31 -5 -37 -14 -28 -21 21 -38 14 -38 -15 0 -26 19
-71 20 -48 0 6 7 2 15 -8 12 -17 14 -15 20 25 4 24 5 59 2 78 l-4 35 -1 -39z"/>
<path d="M3768 2000 c-2 -16 -1 -35 4 -42 4 -7 8 -25 8 -39 0 -32 -46 -139
-60 -139 -13 0 -13 1 5 43 17 41 19 61 6 53 -5 -3 -12 -22 -15 -41 -7 -36 -22
-46 -32 -20 -8 19 -20 19 -27 1 -3 -7 6 -25 20 -40 26 -29 25 -49 -2 -23 -14
14 -19 14 -60 -1 l-45 -16 0 -81 c-1 -80 -13 -115 -41 -115 -10 0 -10 -3 -1
-12 9 -9 15 -9 20 -2 4 5 21 16 37 22 28 12 30 16 26 55 l-4 42 28 -33 c25
-30 53 -40 69 -25 3 4 -8 21 -25 39 -27 28 -30 35 -18 47 45 46 74 84 95 127
14 27 29 52 34 55 15 9 52 85 42 85 -4 0 -14 -6 -21 -12 -10 -11 -11 -2 -5 42
4 30 3 52 -1 48 -5 -4 -14 -3 -20 2 -10 8 -14 3 -17 -20z m-122 -285 c6 -16
-12 -45 -27 -45 -10 0 -12 44 -2 53 11 11 23 8 29 -8z"/>
<path d="M3404 1892 l1 -103 25 3 c24 3 25 4 21 85 -1 44 2 90 8 100 9 17 6
19 -23 19 l-32 -1 0 -103z"/>
<path d="M3500 1830 c0 -5 5 -10 11 -10 5 0 7 5 4 10 -3 6 -8 10 -11 10 -2 0
-4 -4 -4 -10z"/>
<path d="M3556 1785 c-11 -8 -15 -15 -9 -15 6 0 16 7 23 15 16 19 11 19 -14 0z"/>
<path d="M2662 1509 c2 -18 12 -25 43 -33 22 -5 43 -13 47 -19 3 -6 15 -11 25
-12 10 0 24 -4 31 -9 8 -5 12 0 12 13 0 16 -8 22 -40 27 -22 4 -40 11 -40 16
0 5 -9 6 -20 3 -14 -4 -20 -2 -18 6 2 7 -1 13 -7 14 -5 0 -16 4 -23 9 -10 6
-13 2 -10 -15z"/>
<path d="M3702 1490 c0 -14 2 -19 5 -12 2 6 2 18 0 25 -3 6 -5 1 -5 -13z"/>
<path d="M3656 1481 c-3 -5 1 -12 10 -15 20 -8 29 -1 19 13 -8 13 -22 14 -29
2z"/>
<path d="M3410 1462 c0 -20 3 -21 20 -12 11 6 20 13 20 16 0 3 -5 2 -11 -2 -6
-3 -15 0 -20 7 -6 10 -9 8 -9 -9z"/>
<path d="M3580 1460 c0 -13 28 -25 38 -16 3 4 0 11 -8 16 -20 13 -30 12 -30 0z"/>
<path d="M2860 1451 c0 -12 28 -41 40 -41 4 0 11 7 14 15 4 11 -3 19 -20 25
-31 12 -34 12 -34 1z"/>
<path d="M3462 1420 c0 -14 2 -19 5 -12 2 6 2 18 0 25 -3 6 -5 1 -5 -13z"/>
<path d="M3506 1431 c-3 -5 1 -12 10 -15 22 -8 25 -4 9 11 -8 7 -16 9 -19 4z"/>
<path d="M3215 1359 c4 -5 2 -15 -4 -22 -10 -13 -23 -67 -16 -67 5 0 45 76 45
84 0 2 -7 7 -16 10 -9 3 -12 2 -9 -5z"/>
<path d="M2826 1291 c-3 -5 8 -17 25 -25 40 -20 39 -20 39 4 0 11 -6 20 -14
20 -8 0 -21 3 -29 6 -8 3 -18 1 -21 -5z"/>
<path d="M3500 1276 c0 -2 7 -7 16 -10 8 -3 12 -2 9 4 -6 10 -25 14 -25 6z"/>
<path d="M3420 1260 c0 -14 46 -16 58 -4 10 11 5 13 -23 12 -19 -1 -35 -4 -35
-8z"/>
<path d="M2770 1249 c0 -18 42 -50 57 -45 7 3 13 1 13 -5 0 -6 5 -7 10 -4 6 4
17 1 25 -5 8 -7 33 -10 55 -8 22 2 40 1 40 -3 0 -12 49 -16 54 -5 3 6 4 2 3
-9 -1 -11 5 -21 16 -23 13 -3 17 3 17 22 0 23 -4 26 -37 28 -21 1 -51 3 -68 4
-16 1 -42 6 -56 12 -15 6 -43 14 -62 17 -20 4 -38 13 -41 21 -6 17 -26 19 -26
3z"/>
<path d="M3185 1235 c2 -11 4 -24 5 -30 0 -5 5 -3 10 7 7 12 21 16 50 14 22
-2 40 1 40 5 0 5 10 8 21 6 12 -1 23 3 25 8 3 6 -27 10 -76 10 -74 1 -79 -1
-75 -20z"/>
<path d="M3353 1247 c5 -16 47 -19 47 -3 0 8 -11 14 -25 14 -14 0 -24 -5 -22
-11z"/>
<path d="M2527 1189 c3 -58 13 -62 13 -6 0 26 -4 47 -8 47 -4 0 -7 -19 -5 -41z"/>
<path d="M3580 1220 c0 -5 5 -10 10 -10 6 0 10 5 10 10 0 6 -4 10 -10 10 -5 0
-10 -4 -10 -10z"/>
<path d="M3529 1203 c-12 -15 -12 -16 4 -10 10 4 23 7 28 7 5 0 9 5 9 10 0 16
-26 12 -41 -7z"/>
<path d="M3480 1194 c0 -8 5 -12 10 -9 6 3 10 10 10 16 0 5 -4 9 -10 9 -5 0
-10 -7 -10 -16z"/>
<path d="M3446 1184 c-4 -10 -1 -14 6 -12 15 5 23 28 10 28 -5 0 -13 -7 -16
-16z"/>
<path d="M3200 1165 c0 -25 23 -35 35 -14 4 5 18 9 33 7 15 -2 27 3 30 11 3
10 -3 12 -27 9 -18 -3 -34 -1 -37 4 -11 18 -34 7 -34 -17z"/>
<path d="M3330 1180 c-23 -7 -23 -8 -6 -15 11 -5 26 -3 37 3 13 9 19 8 22 -1
3 -7 6 -4 6 6 1 18 -16 20 -59 7z"/>
<path d="M3410 1181 c0 -5 5 -13 10 -16 6 -3 10 -2 10 4 0 5 -4 13 -10 16 -5
3 -10 2 -10 -4z"/>
<path d="M3820 1165 c0 -8 5 -15 10 -15 6 0 10 7 10 15 0 8 -4 15 -10 15 -5 0
-10 -7 -10 -15z"/>
<path d="M3790 1121 c0 -23 5 -31 18 -31 12 0 14 2 4 8 -7 5 -10 16 -7 24 4 9
2 19 -4 23 -7 4 -11 -5 -11 -24z"/>
<path d="M3760 1108 c0 -12 -3 -18 -6 -15 -4 4 -19 -2 -33 -12 -23 -17 -28
-17 -40 -4 -11 12 -15 13 -22 1 -5 -7 -8 -20 -8 -28 0 -10 2 -11 6 -2 8 20 22
14 16 -9 l-6 -20 -21 20 c-12 12 -26 21 -31 21 -13 0 -34 -34 -35 -57 0 -27
17 -33 50 -17 82 40 116 58 126 68 17 16 28 76 15 76 -6 0 -11 -10 -11 -22z
m-144 -106 c-12 -11 -18 7 -10 30 l8 23 4 -23 c2 -13 1 -26 -2 -30z"/>
<path d="M3258 1080 c12 -11 24 -20 28 -20 4 0 -1 9 -11 20 -10 11 -23 20 -28
20 -6 0 -1 -9 11 -20z"/>
<path d="M3540 1031 c0 -5 6 -11 13 -14 9 -3 7 -9 -5 -24 -26 -28 -23 -46 5
-37 27 8 25 3 19 47 -2 23 -10 37 -18 37 -8 0 -14 -4 -14 -9z"/>
<path d="M3175 1020 c3 -5 8 -10 11 -10 2 0 4 5 4 10 0 6 -5 10 -11 10 -5 0
-7 -4 -4 -10z"/>
<path d="M3265 980 c3 -5 8 -10 11 -10 2 0 4 5 4 10 0 6 -5 10 -11 10 -5 0 -7
-4 -4 -10z"/>
<path d="M3418 943 c7 -3 16 -2 19 1 4 3 -2 6 -13 5 -11 0 -14 -3 -6 -6z"/>
<path d="M3833 907 c-59 -60 -155 -109 -205 -106 -23 2 -42 -2 -47 -9 -6 -10
-19 -10 -52 -3 -115 25 -421 28 -612 5 l-137 -17 -83 37 c-45 21 -93 43 -106
49 -14 7 -40 27 -58 45 -35 35 -48 41 -40 17 4 -8 3 -17 -2 -19 -4 -3 -4 -36
1 -73 7 -52 17 -78 41 -110 36 -48 52 -50 53 -7 1 48 3 54 19 54 8 0 15 7 15
15 0 17 25 20 35 5 4 -6 10 -8 14 -6 4 3 48 -2 97 -10 64 -11 115 -13 184 -7
52 4 237 7 410 7 288 1 318 3 344 19 30 20 56 17 56 -7 0 -7 7 -16 15 -20 8
-3 15 -12 15 -21 0 -12 4 -14 19 -5 27 14 31 13 24 -7 -5 -15 -3 -14 10 2 9
11 17 28 17 37 0 9 5 20 10 23 6 4 8 11 4 16 -3 5 -1 15 4 22 23 28 26 117 4
117 -4 0 -26 -19 -49 -43z"/>
<path d="M3846 654 c-4 -10 -1 -14 6 -12 15 5 23 28 10 28 -5 0 -13 -7 -16
-16z"/>
<path d="M2510 650 c-11 -7 -8 -10 12 -15 16 -4 29 -16 32 -30 3 -13 15 -27
26 -30 11 -4 18 -10 15 -15 -6 -10 51 -60 68 -60 7 0 0 11 -15 25 -14 13 -29
34 -33 45 -4 13 -12 19 -21 16 -7 -3 -13 -2 -13 2 5 32 -47 77 -71 62z"/>
<path d="M3154 650 c-12 -5 -25 -13 -29 -19 -3 -6 -23 -12 -43 -12 -21 -1 -29
-3 -17 -6 11 -3 27 -12 36 -20 14 -11 18 -12 23 -1 3 7 4 -5 2 -27 -5 -37 -4
-39 10 -20 11 15 17 17 23 7 17 -27 181 -36 236 -12 11 5 27 11 35 13 10 3 2
10 -22 21 -20 9 -44 13 -52 10 -9 -4 -20 5 -31 23 -12 22 -14 23 -10 6 4 -14
2 -23 -4 -23 -6 0 -11 9 -11 19 0 24 -16 36 -23 19 -4 -8 -6 -7 -6 3 -1 20
-35 31 -50 16 -8 -8 -11 -8 -11 1 0 14 -25 15 -56 2z"/>
<path d="M2510 604 c0 -11 3 -24 7 -28 4 -3 8 -12 9 -19 1 -7 17 -44 37 -84
19 -39 33 -74 31 -76 -3 -2 24 -32 58 -67 60 -59 138 -112 203 -138 88 -34
321 -50 476 -32 97 11 227 48 259 74 8 7 35 23 60 35 25 13 58 35 74 49 29 28
97 125 100 146 1 6 9 26 19 45 19 38 21 51 8 51 -5 0 -12 -10 -15 -22 -18 -68
-196 -199 -301 -222 -23 -5 -27 -4 -15 5 12 9 10 10 -10 5 -14 -3 -32 -6 -40
-7 -10 0 -8 -3 5 -9 18 -7 18 -9 -9 -19 -16 -7 -34 -10 -40 -7 -6 2 -3 5 7 5
20 1 24 21 3 21 -7 0 -29 -6 -47 -14 -28 -12 -30 -15 -13 -19 10 -3 -7 -4 -38
-2 -32 2 -58 -1 -58 -6 0 -13 -201 -10 -315 5 -134 18 -218 61 -325 166 -42
42 -81 87 -85 100 -4 13 -16 37 -26 54 -16 26 -19 28 -19 10z"/>
<path d="M3810 607 c0 -7 -9 -18 -20 -25 -12 -7 -19 -16 -16 -21 3 -4 -6 -14
-19 -21 -14 -7 -25 -17 -25 -22 0 -13 8 -10 40 14 22 16 27 24 18 30 -9 5 -6
8 8 8 12 0 25 7 28 16 9 23 7 34 -4 34 -5 0 -10 -6 -10 -13z"/>
<path d="M2720 556 c0 -15 70 -36 119 -36 32 0 42 -16 16 -26 -8 -4 -13 -10
-10 -14 6 -10 141 -7 152 3 13 14 -14 28 -58 29 -24 1 -52 8 -61 16 -9 8 -39
15 -67 15 -33 1 -51 6 -51 15 0 6 -9 12 -20 12 -11 0 -20 -6 -20 -14z"/>
<path d="M3620 553 c1 -19 16 -31 29 -24 7 5 10 14 7 20 -8 12 -36 15 -36 4z"/>
<path d="M3423 539 c-23 -12 -37 -45 -23 -54 5 -3 20 -3 33 1 14 3 28 1 32 -5
4 -7 27 -9 63 -5 63 7 107 24 82 32 -8 3 -18 10 -22 15 -13 21 -131 32 -165
16z"/>
<path d="M3694 485 c-9 -13 -20 -22 -25 -19 -5 3 -9 0 -9 -5 0 -6 5 -11 11
-11 5 0 7 -5 3 -12 -4 -7 -3 -8 5 -4 6 4 9 11 6 16 -3 5 6 17 20 28 14 11 21
23 16 27 -6 3 -18 -6 -27 -20z"/>
<path d="M2640 483 c0 -11 78 -71 120 -93 22 -11 22 -10 -6 17 -17 17 -38 40
-47 53 -13 19 -67 38 -67 23z"/>
<path d="M3615 440 c-3 -5 1 -10 9 -10 9 0 16 5 16 10 0 6 -4 10 -9 10 -6 0
-13 -4 -16 -10z"/>
<path d="M2788 423 c34 -18 43 -43 15 -43 -27 0 -3 -16 60 -39 68 -25 67 -25
67 -7 0 9 9 12 28 9 l27 -4 -25 15 c-14 8 -37 12 -52 9 -20 -4 -33 2 -55 23
-15 16 -41 35 -56 42 -40 18 -48 14 -9 -5z"/>
<path d="M3557 406 c-16 -14 -34 -23 -41 -20 -6 2 -12 -4 -13 -16 -1 -11 4
-20 13 -20 8 0 14 5 14 11 0 6 6 9 13 6 7 -3 31 6 53 19 31 19 35 24 17 24
-12 0 -25 -4 -28 -10 -3 -5 -11 -10 -17 -10 -6 0 -1 9 12 20 13 11 19 20 14
20 -5 0 -22 -11 -37 -24z"/>
<path d="M3318 413 c6 -2 18 -2 25 0 6 3 1 5 -13 5 -14 0 -19 -2 -12 -5z"/>
<path d="M3378 413 c7 -3 16 -2 19 1 4 3 -2 6 -13 5 -11 0 -14 -3 -6 -6z"/>
<path d="M2885 380 c-3 -5 -2 -10 4 -10 5 0 13 5 16 10 3 6 2 10 -4 10 -5 0
-13 -4 -16 -10z"/>
<path d="M3200 341 c0 -6 -9 -11 -21 -11 -11 0 -17 -4 -14 -10 8 -13 18 -13
40 3 12 10 14 16 7 21 -7 4 -12 2 -12 -3z"/>
<path d="M3338 323 c7 -3 16 -2 19 1 4 3 -2 6 -13 5 -11 0 -14 -3 -6 -6z"/>
</g>
</svg>
